<svg id="svg" version="1.1" xmlns="http://www.w3.org/2000/svg" xmlns:xlink="http://www.w3.org/1999/xlink" width="400" height="398.2222222222222" viewBox="0, 0, 400,398.2222222222222"><g id="svgg"><path id="path0" d="M0.000 9.761 C 0.000 18.116,0.085 19.522,0.590 19.522 C 0.915 19.522,1.299 19.029,1.445 18.426 C 1.591 17.824,2.042 16.855,2.449 16.273 C 2.855 15.692,3.187 14.943,3.187 14.610 C 3.187 14.278,3.635 13.473,4.183 12.822 C 4.731 12.171,5.179 11.440,5.179 11.197 C 5.179 10.955,5.348 10.757,5.555 10.757 C 5.762 10.757,6.249 10.219,6.637 9.562 C 7.025 8.904,7.465 8.367,7.613 8.367 C 7.762 8.367,8.460 7.828,9.164 7.171 C 10.829 5.615,13.621 3.738,14.803 3.380 C 15.317 3.224,16.296 2.758,16.980 2.344 C 17.664 1.931,19.053 1.479,20.068 1.340 C 21.237 1.180,21.912 0.888,21.912 0.543 C 21.912 0.098,19.944 0.000,10.956 0.000 L 0.000 0.000 0.000 9.761 M376.494 0.552 C 376.494 0.922,377.216 1.194,378.686 1.377 C 383.338 1.959,393.625 9.137,393.625 11.802 C 393.625 12.082,393.850 12.454,394.124 12.630 C 394.730 13.018,396.434 16.543,397.456 19.522 C 398.529 22.651,398.852 376.465,397.785 379.368 C 397.439 380.307,397.015 381.614,396.841 382.271 C 395.617 386.915,386.518 396.262,382.424 397.081 C 381.792 397.207,381.275 397.557,381.275 397.859 C 381.275 398.308,382.959 398.406,390.637 398.406 L 400.000 398.406 400.000 199.203 L 400.000 0.000 388.247 0.000 C 378.500 0.000,376.494 0.094,376.494 0.552 M261.952 103.977 C 259.980 104.153,256.932 104.580,255.179 104.924 C 253.426 105.268,251.342 105.556,250.547 105.564 C 249.752 105.571,248.497 105.829,247.758 106.136 C 247.019 106.443,244.980 106.910,243.227 107.174 C 241.474 107.438,239.592 107.880,239.044 108.157 C 238.496 108.435,237.151 108.788,236.056 108.943 C 234.960 109.099,233.673 109.476,233.195 109.783 C 232.718 110.089,231.552 110.457,230.606 110.599 C 229.659 110.742,228.347 111.173,227.689 111.558 C 227.032 111.942,225.642 112.378,224.602 112.527 C 223.561 112.676,222.709 112.961,222.709 113.161 C 222.709 113.360,221.726 113.809,220.525 114.158 C 219.324 114.508,218.249 114.943,218.136 115.126 C 218.023 115.308,217.034 115.673,215.937 115.936 C 214.841 116.199,213.944 116.562,213.944 116.742 C 213.944 116.922,213.272 117.289,212.450 117.557 C 211.628 117.825,210.544 118.364,210.041 118.755 C 209.538 119.147,208.609 119.580,207.977 119.719 C 207.345 119.858,206.614 120.229,206.353 120.544 C 206.092 120.858,205.703 121.116,205.489 121.116 C 204.898 121.116,197.331 125.471,196.790 126.123 C 196.530 126.437,195.987 126.693,195.584 126.693 C 195.181 126.693,194.531 127.018,194.139 127.414 C 193.525 128.036,190.143 130.422,188.102 131.673 C 187.745 131.892,186.889 132.520,186.200 133.068 C 185.511 133.616,184.469 134.422,183.883 134.861 C 183.298 135.299,182.440 136.061,181.975 136.554 C 181.511 137.047,181.011 137.450,180.865 137.450 C 180.001 137.450,165.766 151.390,161.947 155.976 C 160.670 157.510,159.476 158.825,159.294 158.898 C 159.113 158.971,158.964 159.193,158.964 159.392 C 158.964 159.766,156.634 162.944,155.610 163.968 C 155.292 164.286,154.919 164.904,154.780 165.341 C 154.641 165.778,154.369 166.135,154.175 166.135 C 153.981 166.135,153.528 166.755,153.169 167.512 C 152.810 168.268,152.264 169.097,151.955 169.353 C 151.647 169.609,151.394 170.044,151.394 170.319 C 151.394 170.594,151.115 171.051,150.774 171.334 C 150.432 171.617,149.888 172.401,149.565 173.076 C 149.241 173.751,148.535 175.020,147.997 175.896 C 147.458 176.773,146.730 178.118,146.378 178.884 C 146.025 179.651,145.509 180.548,145.230 180.876 C 144.951 181.205,144.506 182.146,144.243 182.968 C 143.979 183.790,143.604 184.462,143.411 184.462 C 143.217 184.462,142.871 185.158,142.642 186.009 C 142.413 186.860,141.958 187.779,141.631 188.050 C 141.303 188.322,141.036 188.854,141.036 189.232 C 141.036 189.611,140.588 190.764,140.040 191.794 C 139.492 192.825,139.044 193.977,139.044 194.355 C 139.044 194.733,138.791 195.403,138.481 195.845 C 138.172 196.287,137.622 197.668,137.260 198.914 C 136.898 200.161,136.444 201.278,136.252 201.396 C 136.060 201.515,135.781 202.460,135.632 203.495 C 135.482 204.531,135.024 206.131,134.613 207.050 C 134.201 207.969,133.865 209.150,133.865 209.673 C 133.865 210.197,133.530 211.686,133.120 212.982 C 132.711 214.278,132.160 216.952,131.895 218.924 C 131.630 220.896,131.165 223.406,130.861 224.502 C 130.520 225.733,130.228 229.537,130.097 234.462 C 129.980 238.845,129.779 244.044,129.650 246.016 C 129.293 251.450,130.189 273.143,130.859 275.299 C 131.165 276.285,131.626 278.705,131.883 280.677 C 132.140 282.649,132.691 285.323,133.108 286.620 C 133.524 287.916,133.866 289.529,133.867 290.205 C 133.868 290.881,134.148 291.968,134.488 292.621 C 134.829 293.274,135.288 294.649,135.508 295.675 C 135.728 296.702,136.255 298.223,136.679 299.055 C 137.103 299.886,137.450 300.883,137.450 301.269 C 137.450 301.945,138.073 303.489,140.088 307.809 C 140.609 308.926,141.036 310.063,141.036 310.336 C 141.036 310.608,141.394 311.286,141.833 311.843 C 142.271 312.401,142.629 313.082,142.629 313.358 C 142.629 313.634,143.560 315.627,144.696 317.786 C 145.833 319.946,147.117 322.430,147.550 323.307 C 147.982 324.183,148.645 325.259,149.023 325.697 C 149.400 326.135,149.832 326.897,149.981 327.390 C 150.131 327.883,150.418 328.287,150.619 328.287 C 150.821 328.287,151.254 328.870,151.583 329.582 C 151.911 330.294,152.798 331.683,153.554 332.669 C 154.309 333.655,154.939 334.607,154.954 334.784 C 154.976 335.054,157.124 338.000,157.769 338.645 C 157.878 338.755,158.583 339.651,159.334 340.637 C 160.085 341.624,160.930 342.699,161.212 343.028 C 161.494 343.357,162.224 344.232,162.834 344.973 C 164.965 347.560,176.529 359.174,178.302 360.508 C 179.284 361.248,180.720 362.413,181.492 363.098 C 183.459 364.842,184.477 365.644,185.857 366.536 C 186.514 366.962,188.127 368.121,189.442 369.113 C 190.757 370.104,192.102 371.036,192.430 371.183 C 192.759 371.330,193.535 371.868,194.154 372.379 C 194.773 372.889,195.476 373.307,195.716 373.307 C 195.956 373.307,196.468 373.592,196.853 373.941 C 197.612 374.628,199.381 375.663,201.594 376.717 C 202.361 377.082,203.078 377.505,203.187 377.657 C 203.297 377.809,204.014 378.182,204.781 378.486 C 205.548 378.790,206.265 379.160,206.375 379.310 C 206.551 379.550,208.627 380.550,213.745 382.858 C 214.622 383.253,216.358 384.045,217.605 384.617 C 218.851 385.189,220.196 385.663,220.593 385.670 C 220.990 385.677,222.211 386.123,223.307 386.662 C 224.402 387.201,225.613 387.644,225.997 387.646 C 226.382 387.648,227.365 388.008,228.183 388.446 C 229.000 388.884,230.120 389.247,230.671 389.252 C 231.222 389.257,232.409 389.595,233.309 390.003 C 234.208 390.412,235.912 390.873,237.094 391.028 C 238.276 391.184,239.602 391.537,240.040 391.813 C 240.478 392.089,241.897 392.448,243.193 392.609 C 244.489 392.770,246.820 393.230,248.373 393.631 C 249.925 394.031,252.450 394.473,253.984 394.613 C 255.518 394.752,258.386 395.115,260.359 395.418 C 268.017 396.595,299.235 396.480,304.183 395.256 C 305.060 395.039,307.555 394.670,309.729 394.435 C 311.903 394.201,313.875 393.854,314.112 393.665 C 314.348 393.476,316.155 393.100,318.127 392.829 C 320.100 392.558,321.919 392.171,322.171 391.969 C 322.423 391.767,323.752 391.421,325.123 391.200 C 326.495 390.980,328.385 390.449,329.324 390.021 C 330.264 389.593,331.535 389.242,332.149 389.242 C 332.764 389.241,333.837 388.893,334.533 388.468 C 335.229 388.044,336.484 387.572,337.322 387.420 C 338.159 387.268,339.510 386.809,340.323 386.400 C 341.136 385.992,342.032 385.652,342.315 385.645 C 342.597 385.638,343.725 385.191,344.821 384.653 C 345.916 384.114,347.105 383.671,347.461 383.669 C 347.818 383.667,348.333 383.396,348.606 383.068 C 348.878 382.739,349.290 382.470,349.519 382.470 C 349.957 382.470,354.746 380.305,355.777 379.641 C 356.106 379.429,357.047 378.966,357.869 378.611 C 358.690 378.257,359.363 377.834,359.363 377.672 C 359.363 377.510,360.035 377.084,360.857 376.726 C 361.678 376.367,363.157 375.542,364.143 374.893 C 365.129 374.243,366.429 373.513,367.032 373.271 C 367.634 373.029,368.127 372.665,368.127 372.462 C 368.127 372.260,368.621 371.881,369.223 371.621 C 369.826 371.360,370.857 370.729,371.514 370.218 C 372.843 369.185,373.563 368.644,375.896 366.928 C 376.773 366.283,377.855 365.392,378.301 364.949 C 378.747 364.506,379.218 364.143,379.347 364.143 C 380.252 364.143,394.024 350.318,394.024 349.409 C 394.024 349.057,386.748 341.734,377.788 333.068 C 372.969 328.408,369.663 325.304,363.464 319.622 C 361.084 317.440,359.170 318.290,352.916 324.303 C 351.890 325.289,350.811 326.275,350.518 326.494 C 350.224 326.713,349.181 327.574,348.199 328.406 C 345.645 330.573,345.510 330.677,343.266 332.207 C 342.149 332.969,341.092 333.833,340.916 334.127 C 340.741 334.421,340.410 334.661,340.180 334.661 C 339.950 334.661,338.629 335.394,337.244 336.289 C 334.600 337.999,332.737 339.077,331.076 339.857 C 330.528 340.114,329.811 340.488,329.482 340.688 C 329.153 340.888,328.257 341.320,327.490 341.648 C 326.723 341.977,325.558 342.492,324.900 342.793 C 324.243 343.094,323.078 343.574,322.311 343.859 C 321.544 344.144,320.817 344.520,320.697 344.694 C 320.576 344.868,319.510 345.194,318.329 345.418 C 317.148 345.642,315.782 346.088,315.292 346.408 C 314.802 346.729,313.447 347.167,312.281 347.381 C 311.114 347.595,309.084 348.040,307.769 348.370 C 298.120 350.790,277.979 351.522,267.928 349.817 C 265.299 349.371,262.604 349.006,261.939 349.005 C 261.275 349.004,259.751 348.723,258.553 348.379 C 257.355 348.035,255.388 347.529,254.183 347.255 C 252.978 346.981,251.325 346.455,250.511 346.087 C 249.696 345.719,248.620 345.413,248.120 345.406 C 247.620 345.399,246.315 344.952,245.219 344.413 C 244.124 343.875,242.935 343.432,242.579 343.430 C 242.222 343.428,241.707 343.157,241.434 342.829 C 241.161 342.500,240.736 342.230,240.489 342.230 C 240.242 342.229,238.964 341.692,237.649 341.036 C 236.335 340.380,235.029 339.843,234.748 339.842 C 234.468 339.841,234.141 339.588,234.022 339.279 C 233.904 338.970,233.341 338.600,232.772 338.457 C 232.202 338.315,231.294 337.850,230.755 337.426 C 230.215 337.001,229.573 336.653,229.329 336.653 C 229.084 336.652,227.898 335.935,226.693 335.059 C 225.488 334.183,224.005 333.268,223.398 333.026 C 222.791 332.784,222.112 332.246,221.890 331.831 C 221.668 331.415,221.283 331.076,221.035 331.076 C 220.788 331.076,220.301 330.810,219.954 330.485 C 219.607 330.160,218.157 328.963,216.733 327.825 C 209.208 321.814,200.999 312.112,195.855 303.150 C 195.049 301.746,194.227 300.329,194.028 300.000 C 193.597 299.287,192.644 297.398,192.018 296.016 C 191.770 295.468,191.224 294.357,190.804 293.547 C 190.384 292.736,190.034 291.840,190.027 291.555 C 190.021 291.269,189.574 290.139,189.035 289.044 C 188.496 287.948,188.053 286.688,188.051 286.244 C 188.049 285.800,187.781 285.055,187.454 284.589 C 187.128 284.122,186.666 282.783,186.428 281.612 C 186.190 280.440,185.740 278.917,185.428 278.227 C 185.116 277.536,184.861 276.611,184.861 276.170 C 184.861 275.730,184.372 273.426,183.774 271.051 L 182.688 266.733 182.688 249.801 C 182.688 233.705,182.730 232.701,183.556 229.482 C 184.033 227.620,184.605 224.957,184.826 223.566 C 185.047 222.174,185.384 220.830,185.576 220.578 C 185.767 220.326,186.155 219.044,186.438 217.729 C 186.720 216.414,187.198 214.985,187.500 214.553 C 187.801 214.121,188.048 213.350,188.048 212.841 C 188.048 212.332,188.496 211.074,189.044 210.045 C 189.592 209.016,190.044 207.903,190.049 207.573 C 190.054 207.242,190.408 206.524,190.837 205.976 C 191.265 205.428,191.620 204.691,191.625 204.337 C 191.629 203.983,191.966 203.266,192.372 202.743 C 192.779 202.220,193.330 201.121,193.598 200.299 C 193.866 199.477,194.239 198.805,194.426 198.805 C 194.614 198.805,194.889 198.401,195.039 197.908 C 195.278 197.120,199.393 190.562,199.977 190.040 C 200.099 189.930,200.426 189.482,200.703 189.044 C 202.301 186.516,203.874 184.506,206.773 181.287 C 207.929 180.003,211.674 176.119,212.431 175.417 C 212.715 175.154,213.170 174.706,213.441 174.421 C 214.657 173.147,215.071 172.808,221.577 167.755 C 222.159 167.302,222.830 166.932,223.068 166.932 C 223.305 166.932,223.723 166.574,223.997 166.135 C 224.271 165.697,224.707 165.339,224.966 165.339 C 225.225 165.339,225.970 164.890,226.621 164.343 C 227.272 163.795,228.082 163.347,228.420 163.347 C 228.759 163.347,229.160 163.147,229.311 162.903 C 229.462 162.659,230.324 162.109,231.227 161.681 C 232.781 160.944,234.526 160.045,235.857 159.296 C 236.476 158.947,238.369 158.064,240.438 157.157 C 241.096 156.869,242.351 156.414,243.227 156.145 C 244.104 155.876,245.179 155.434,245.618 155.164 C 246.056 154.893,247.131 154.548,248.008 154.398 C 248.884 154.247,249.990 153.875,250.464 153.569 C 250.938 153.264,252.522 152.823,253.984 152.590 C 255.446 152.356,257.030 151.920,257.504 151.622 C 257.978 151.323,259.801 150.952,261.554 150.798 C 263.307 150.644,264.952 150.345,265.211 150.134 C 266.846 148.798,297.876 148.605,301.594 149.908 C 302.580 150.253,304.641 150.658,306.175 150.808 C 307.709 150.957,309.323 151.303,309.761 151.578 C 310.199 151.852,311.787 152.290,313.290 152.552 C 314.793 152.813,316.407 153.269,316.876 153.566 C 317.345 153.862,318.357 154.230,319.124 154.382 C 319.890 154.535,320.876 154.884,321.315 155.158 C 321.753 155.432,322.829 155.890,323.705 156.176 C 325.248 156.680,327.859 157.852,329.084 158.591 C 329.412 158.790,330.309 159.222,331.076 159.552 C 331.843 159.881,332.739 160.329,333.068 160.548 C 333.396 160.766,334.203 161.222,334.861 161.562 C 337.031 162.683,343.099 166.583,344.911 168.021 C 345.399 168.408,346.276 169.084,346.859 169.522 C 347.443 169.960,348.319 170.722,348.807 171.215 C 349.294 171.708,349.897 172.112,350.145 172.112 C 350.394 172.112,350.598 172.260,350.598 172.440 C 350.598 172.621,351.718 173.679,353.088 174.791 C 354.457 175.903,356.597 177.817,357.843 179.044 C 360.627 181.787,361.266 181.823,363.724 179.382 C 364.771 178.342,367.384 175.876,369.529 173.904 C 371.674 171.932,374.280 169.512,375.320 168.526 C 376.360 167.540,379.305 164.761,381.863 162.351 C 387.245 157.281,392.308 152.330,393.361 151.108 C 394.516 149.769,389.879 144.343,381.689 137.450 C 380.518 136.464,379.067 135.209,378.466 134.661 C 377.335 133.632,376.620 133.069,373.904 131.071 C 373.028 130.426,372.042 129.665,371.713 129.380 C 371.384 129.095,370.623 128.612,370.020 128.308 C 369.417 128.003,368.924 127.605,368.924 127.423 C 368.924 127.241,368.680 127.092,368.380 127.092 C 368.081 127.092,367.326 126.690,366.702 126.199 C 365.388 125.165,363.664 124.128,361.920 123.322 C 361.246 123.010,360.471 122.487,360.200 122.160 C 359.928 121.833,359.168 121.447,358.511 121.303 C 357.854 121.158,357.220 120.788,357.102 120.480 C 356.984 120.172,356.653 119.920,356.366 119.920 C 356.080 119.920,354.261 119.132,352.325 118.168 C 347.102 115.568,344.616 114.481,342.729 113.971 C 341.798 113.720,341.036 113.358,341.036 113.166 C 341.036 112.975,340.278 112.691,339.351 112.534 C 338.425 112.378,337.270 111.990,336.785 111.672 C 336.300 111.354,334.952 110.854,333.788 110.560 C 332.625 110.266,330.956 109.750,330.080 109.413 C 329.203 109.076,328.077 108.792,327.577 108.782 C 327.077 108.773,326.017 108.493,325.222 108.161 C 324.427 107.829,322.506 107.369,320.952 107.138 C 319.399 106.908,317.410 106.474,316.534 106.175 C 315.657 105.876,312.878 105.431,310.359 105.186 C 307.839 104.942,304.880 104.558,303.785 104.333 C 301.316 103.826,266.906 103.533,261.952 103.977 M0.000 389.442 L 0.000 398.406 8.798 398.406 C 17.622 398.406,19.590 398.043,15.909 397.094 C 15.157 396.901,14.221 396.399,13.829 395.981 C 13.437 395.562,12.921 395.219,12.681 395.219 C 11.787 395.219,7.226 390.953,5.759 388.745 C 4.923 387.485,4.106 386.454,3.944 386.454 C 3.782 386.454,3.534 385.929,3.393 385.286 C 3.251 384.644,2.888 383.913,2.584 383.661 C 2.281 383.409,1.830 382.590,1.583 381.841 C 0.396 378.244,0.000 380.145,0.000 389.442 " stroke="none" fill="#faf9f9" fill-rule="evenodd"></path><path id="path1" d="M20.846 2.276 C 20.151 2.364,19.367 2.695,19.104 3.011 C 18.842 3.327,18.316 3.586,17.936 3.586 C 17.084 3.586,12.849 5.789,11.727 6.817 C 11.275 7.231,10.737 7.568,10.532 7.567 C 10.087 7.563,5.977 12.004,5.977 12.488 C 5.976 12.674,5.611 13.338,5.165 13.965 C 4.718 14.591,4.155 15.695,3.913 16.417 C 3.671 17.138,3.234 18.007,2.941 18.348 C 2.464 18.902,2.006 21.123,1.320 26.195 C 1.178 27.252,0.886 27.888,0.546 27.888 C 0.085 27.888,0.000 54.845,0.000 201.992 C 0.000 354.444,0.072 376.096,0.582 376.096 C 0.930 376.096,1.347 376.776,1.619 377.789 C 1.869 378.720,2.593 380.595,3.228 381.955 C 3.863 383.316,4.382 384.616,4.382 384.844 C 4.382 385.072,4.566 385.259,4.791 385.259 C 5.015 385.259,5.356 385.672,5.548 386.177 C 6.113 387.663,9.607 391.552,11.702 393.028 C 14.687 395.130,16.794 396.244,18.468 396.604 C 19.130 396.747,19.691 397.175,19.810 397.628 C 20.121 398.819,378.274 398.862,378.586 397.670 C 378.711 397.192,379.406 396.776,380.568 396.483 C 381.553 396.235,382.585 395.760,382.862 395.427 C 383.138 395.093,383.576 394.821,383.835 394.821 C 385.160 394.821,392.829 387.773,392.829 386.555 C 392.829 386.266,393.072 385.937,393.369 385.823 C 393.667 385.709,394.144 384.908,394.429 384.043 C 394.715 383.178,395.092 382.470,395.268 382.470 C 396.352 382.470,396.412 374.312,396.556 207.340 C 396.710 28.716,396.664 19.976,395.578 18.309 C 395.228 17.771,394.710 16.624,394.426 15.759 C 394.143 14.895,393.578 13.831,393.171 13.394 C 392.763 12.956,392.430 12.400,392.430 12.157 C 392.430 11.914,391.399 10.678,390.139 9.410 C 387.189 6.443,386.906 6.217,385.359 5.600 C 384.646 5.315,384.064 4.932,384.064 4.748 C 384.064 4.564,383.302 4.210,382.371 3.962 C 381.439 3.714,380.345 3.214,379.938 2.851 C 379.247 2.234,25.651 1.668,20.846 2.276 M307.114 103.009 C 308.726 103.149,310.611 103.500,311.304 103.790 C 311.997 104.079,313.906 104.443,315.545 104.598 C 317.185 104.753,319.137 105.130,319.884 105.434 C 320.632 105.739,322.514 106.185,324.068 106.425 C 325.621 106.665,327.341 107.087,327.888 107.363 C 328.436 107.639,329.781 107.993,330.876 108.151 C 331.972 108.308,333.406 108.757,334.064 109.150 C 334.721 109.542,335.913 109.979,336.713 110.121 C 337.513 110.263,338.368 110.621,338.613 110.917 C 338.858 111.213,339.797 111.572,340.699 111.717 C 341.600 111.861,342.787 112.331,343.334 112.762 C 343.882 113.193,344.820 113.546,345.418 113.546 C 346.017 113.546,346.934 113.870,347.456 114.267 C 347.979 114.664,349.147 115.203,350.052 115.464 C 350.958 115.726,351.921 116.208,352.193 116.536 C 352.465 116.863,353.000 117.131,353.382 117.131 C 353.763 117.131,354.503 117.465,355.026 117.873 C 355.549 118.282,356.424 118.754,356.972 118.924 C 357.520 119.094,358.396 119.567,358.918 119.975 C 359.441 120.383,360.100 120.717,360.384 120.717 C 360.667 120.717,361.141 120.958,361.436 121.253 C 361.731 121.548,362.640 122.107,363.456 122.494 C 364.272 122.881,364.940 123.357,364.940 123.551 C 364.940 123.746,365.185 123.904,365.483 123.904 C 365.782 123.904,366.703 124.442,367.530 125.100 C 368.357 125.757,369.284 126.295,369.589 126.295 C 369.895 126.295,370.248 126.564,370.374 126.892 C 370.500 127.221,370.828 127.490,371.103 127.490 C 371.628 127.490,374.127 129.292,375.512 130.668 C 375.958 131.111,376.526 131.474,376.774 131.474 C 377.022 131.474,377.284 131.633,377.357 131.828 C 377.430 132.023,378.297 132.838,379.283 133.638 C 383.368 136.955,389.531 142.810,394.273 147.879 C 395.928 149.647,394.969 151.676,390.482 155.900 C 389.740 156.599,387.901 158.381,386.396 159.861 C 384.891 161.340,383.494 162.550,383.291 162.550 C 383.088 162.550,382.808 162.908,382.669 163.347 C 382.530 163.785,382.271 164.143,382.093 164.143 C 381.916 164.143,380.197 165.667,378.275 167.530 C 376.353 169.392,374.723 170.916,374.653 170.916 C 374.583 170.916,372.862 172.514,370.828 174.468 C 363.557 181.452,361.545 183.241,360.956 183.247 C 360.387 183.253,359.650 182.625,353.741 177.103 C 350.751 174.308,347.258 171.462,343.227 168.537 C 342.351 167.901,341.320 167.101,340.936 166.758 C 340.553 166.416,340.122 166.135,339.978 166.135 C 339.834 166.135,339.129 165.687,338.411 165.139 C 337.693 164.592,336.869 164.143,336.580 164.143 C 336.292 164.143,335.535 163.694,334.898 163.147 C 334.262 162.599,333.438 162.151,333.068 162.151 C 332.697 162.151,332.070 161.793,331.673 161.355 C 331.277 160.916,330.711 160.558,330.417 160.558 C 330.122 160.558,329.029 160.124,327.988 159.594 C 324.735 157.937,322.477 156.986,321.185 156.727 C 320.499 156.590,319.733 156.230,319.482 155.928 C 319.231 155.626,318.548 155.378,317.964 155.378 C 317.380 155.378,316.191 155.015,315.323 154.572 C 314.455 154.128,312.490 153.571,310.956 153.333 C 309.422 153.096,307.817 152.716,307.389 152.489 C 306.961 152.262,303.913 151.752,300.616 151.356 C 297.319 150.959,293.815 150.455,292.829 150.235 C 290.712 149.763,281.857 149.746,276.494 150.203 C 271.440 150.634,261.631 151.974,261.093 152.306 C 260.857 152.452,258.998 152.859,256.962 153.210 C 254.926 153.562,252.885 154.090,252.427 154.385 C 251.969 154.680,250.876 155.050,250.000 155.208 C 249.124 155.366,247.782 155.828,247.018 156.234 C 246.254 156.640,245.358 156.973,245.026 156.975 C 244.694 156.976,243.884 157.263,243.227 157.613 C 242.570 157.962,241.180 158.506,240.139 158.821 C 239.099 159.136,238.247 159.552,238.247 159.745 C 238.247 159.938,237.690 160.218,237.009 160.368 C 236.328 160.518,235.138 161.070,234.364 161.595 C 233.590 162.120,232.642 162.550,232.258 162.550 C 231.874 162.550,231.463 162.801,231.345 163.107 C 231.228 163.414,230.491 163.876,229.709 164.134 C 228.927 164.392,228.287 164.755,228.287 164.940 C 228.287 165.125,227.659 165.484,226.892 165.737 C 226.125 165.990,225.498 166.358,225.498 166.555 C 225.498 166.751,224.951 167.195,224.282 167.541 C 223.613 167.887,222.761 168.440,222.389 168.770 C 222.017 169.100,220.548 170.252,219.124 171.331 C 217.699 172.410,216.169 173.654,215.723 174.096 C 215.277 174.539,214.694 174.900,214.428 174.900 C 214.162 174.900,213.944 175.086,213.944 175.312 C 213.944 175.848,211.306 178.486,210.770 178.486 C 210.544 178.486,210.359 178.746,210.359 179.064 C 210.359 179.382,210.086 179.794,209.752 179.981 C 209.418 180.168,207.723 182.104,205.986 184.284 C 204.248 186.464,202.594 188.518,202.310 188.850 C 202.025 189.182,201.567 189.899,201.292 190.444 C 201.016 190.989,200.075 192.420,199.201 193.625 C 198.326 194.831,197.611 196.013,197.610 196.253 C 197.610 196.493,197.251 197.014,196.813 197.410 C 196.375 197.807,196.016 198.338,196.016 198.590 C 196.016 198.842,195.568 199.656,195.020 200.398 C 194.472 201.141,194.024 202.050,194.024 202.419 C 194.024 202.788,193.777 203.294,193.476 203.544 C 193.175 203.795,192.704 204.799,192.430 205.777 C 192.157 206.755,191.686 207.759,191.385 208.009 C 191.083 208.259,190.835 208.756,190.833 209.113 C 190.831 209.469,190.388 210.657,189.849 211.753 C 189.311 212.849,188.864 214.214,188.857 214.787 C 188.850 215.360,188.511 216.256,188.103 216.779 C 187.690 217.307,187.231 218.790,187.068 220.120 C 186.907 221.434,186.509 223.137,186.185 223.904 C 185.860 224.671,185.422 227.092,185.212 229.283 C 185.002 231.474,184.568 234.399,184.247 235.782 C 183.409 239.405,183.421 259.980,184.264 264.021 C 184.593 265.598,185.040 268.606,185.258 270.706 C 185.476 272.806,185.903 274.923,186.207 275.410 C 186.512 275.897,186.878 277.281,187.020 278.486 C 187.162 279.691,187.625 281.394,188.047 282.271 C 188.470 283.147,188.920 284.537,189.048 285.359 C 189.175 286.180,189.427 286.853,189.608 286.853 C 189.788 286.853,190.166 287.704,190.447 288.745 C 190.728 289.786,191.186 290.906,191.464 291.235 C 191.742 291.564,192.100 292.371,192.258 293.028 C 192.417 293.685,192.864 294.851,193.252 295.618 C 193.640 296.384,194.155 297.460,194.396 298.008 C 194.636 298.556,195.362 299.811,196.007 300.797 C 196.653 301.783,197.429 303.127,197.732 303.785 C 198.035 304.442,198.580 305.226,198.942 305.527 C 199.305 305.828,199.602 306.223,199.602 306.406 C 199.602 306.955,201.767 310.157,203.785 312.592 C 204.223 313.121,204.940 314.035,205.378 314.623 C 208.145 318.337,218.036 327.557,223.129 331.169 C 225.149 332.603,227.136 333.865,227.371 333.865 C 227.504 333.865,228.202 334.313,228.920 334.861 C 229.638 335.408,230.479 335.857,230.788 335.857 C 231.098 335.857,231.661 336.199,232.039 336.618 C 232.418 337.036,233.194 337.495,233.763 337.638 C 234.332 337.781,235.239 338.245,235.779 338.670 C 236.319 339.095,237.015 339.442,237.325 339.442 C 237.636 339.442,238.553 339.791,239.363 340.217 C 242.255 341.737,244.256 342.629,244.774 342.629 C 245.063 342.629,246.118 343.064,247.117 343.596 C 248.117 344.127,249.802 344.688,250.862 344.841 C 251.922 344.994,253.237 345.367,253.785 345.670 C 254.689 346.170,257.104 346.674,263.944 347.792 C 274.656 349.543,286.932 350.187,291.675 349.246 C 293.515 348.882,297.182 348.433,299.826 348.250 C 302.469 348.067,304.979 347.732,305.403 347.505 C 305.828 347.279,307.597 346.879,309.335 346.616 C 311.073 346.354,312.866 345.907,313.319 345.624 C 313.773 345.341,314.861 344.986,315.737 344.836 C 316.614 344.686,317.705 344.322,318.164 344.027 C 318.622 343.732,319.787 343.281,320.753 343.023 C 321.719 342.766,322.779 342.324,323.108 342.042 C 323.436 341.760,324.153 341.398,324.701 341.239 C 325.673 340.956,329.482 339.148,331.474 338.024 C 332.022 337.715,332.765 337.459,333.125 337.456 C 333.485 337.453,333.884 337.179,334.011 336.847 C 334.138 336.515,334.651 336.088,335.149 335.898 C 336.628 335.334,342.171 331.589,344.496 329.582 C 345.067 329.089,345.643 328.680,345.775 328.675 C 345.908 328.669,346.767 327.996,347.684 327.181 C 348.602 326.365,350.005 325.159,350.801 324.502 C 351.598 323.845,353.114 322.500,354.171 321.514 C 355.228 320.528,356.566 319.363,357.145 318.924 C 357.725 318.486,358.666 317.724,359.237 317.231 C 360.951 315.752,361.699 316.062,365.715 319.920 C 367.768 321.892,369.586 323.506,369.756 323.506 C 369.927 323.506,370.180 323.865,370.319 324.303 C 370.458 324.741,370.748 325.100,370.964 325.100 C 371.180 325.100,372.619 326.310,374.162 327.789 C 375.705 329.268,377.892 331.348,379.022 332.411 C 391.010 343.691,395.467 348.641,394.946 350.096 C 394.261 352.004,386.443 360.073,381.334 364.143 C 380.646 364.691,379.231 365.897,378.189 366.824 C 377.147 367.750,376.177 368.512,376.033 368.517 C 375.888 368.522,374.780 369.333,373.569 370.319 C 372.359 371.305,371.205 372.112,371.005 372.112 C 370.805 372.112,370.121 372.560,369.484 373.107 C 368.848 373.655,368.130 374.103,367.890 374.103 C 367.650 374.103,367.130 374.462,366.733 374.900 C 366.336 375.339,365.784 375.697,365.505 375.697 C 365.225 375.697,364.742 375.952,364.431 376.264 C 363.830 376.864,361.733 378.029,359.263 379.134 C 358.441 379.501,357.769 379.940,357.769 380.109 C 357.769 380.278,357.097 380.629,356.275 380.890 C 355.453 381.150,354.594 381.595,354.366 381.879 C 354.138 382.162,353.218 382.592,352.321 382.834 C 351.424 383.075,350.468 383.540,350.197 383.867 C 349.925 384.195,349.411 384.468,349.055 384.475 C 348.698 384.481,347.510 384.928,346.414 385.467 C 345.319 386.006,344.175 386.449,343.872 386.451 C 343.569 386.453,342.762 386.791,342.079 387.203 C 341.396 387.614,340.151 388.073,339.314 388.222 C 338.476 388.371,337.221 388.841,336.525 389.265 C 335.829 389.690,334.846 390.038,334.341 390.038 C 333.836 390.039,332.670 390.376,331.751 390.788 C 330.832 391.199,329.198 391.663,328.121 391.818 C 327.043 391.974,325.788 392.333,325.332 392.618 C 324.875 392.903,323.543 393.254,322.371 393.399 C 321.199 393.545,319.586 393.921,318.785 394.235 C 317.985 394.550,315.779 394.980,313.883 395.190 C 311.987 395.401,309.387 395.897,308.106 396.293 C 304.640 397.363,256.290 397.402,254.343 396.336 C 253.643 395.952,251.396 395.484,249.152 395.253 C 246.976 395.030,244.663 394.589,244.012 394.274 C 243.361 393.958,241.843 393.577,240.637 393.426 C 239.432 393.275,238.083 392.922,237.640 392.641 C 237.196 392.361,235.852 392.000,234.652 391.839 C 233.452 391.677,231.718 391.207,230.799 390.793 C 229.879 390.379,228.714 390.039,228.209 390.038 C 227.704 390.038,226.738 389.700,226.062 389.288 C 225.387 388.876,224.221 388.409,223.473 388.250 C 222.724 388.092,221.553 387.623,220.869 387.208 C 220.186 386.793,219.288 386.454,218.874 386.454 C 218.460 386.454,217.279 386.006,216.250 385.458 C 215.221 384.910,214.085 384.462,213.727 384.462 C 213.368 384.462,212.618 384.104,212.061 383.665 C 211.504 383.227,210.748 382.869,210.382 382.869 C 210.016 382.869,209.109 382.420,208.367 381.873 C 207.624 381.325,206.703 380.876,206.321 380.876 C 205.938 380.876,205.505 380.682,205.358 380.445 C 205.211 380.208,204.324 379.685,203.386 379.283 C 202.449 378.881,201.570 378.372,201.434 378.151 C 201.298 377.931,200.651 377.633,199.998 377.490 C 199.344 377.346,198.674 377.018,198.508 376.762 C 198.343 376.505,197.535 375.984,196.713 375.604 C 195.891 375.224,195.219 374.731,195.219 374.508 C 195.219 374.286,194.978 374.104,194.683 374.104 C 194.389 374.104,193.827 373.750,193.435 373.317 C 193.044 372.884,192.344 372.412,191.880 372.266 C 191.132 372.033,190.106 371.334,188.014 369.636 C 187.667 369.354,186.950 368.872,186.421 368.564 C 181.846 365.904,165.230 350.434,161.346 345.219 C 160.530 344.124,159.436 342.751,158.915 342.170 C 158.394 341.589,157.648 340.692,157.257 340.178 C 156.866 339.664,156.015 338.546,155.365 337.694 C 154.715 336.842,154.183 335.907,154.183 335.617 C 154.183 335.326,153.825 334.896,153.386 334.661 C 152.948 334.427,152.590 333.967,152.590 333.639 C 152.590 333.311,152.326 332.942,152.004 332.818 C 151.682 332.694,151.198 331.983,150.928 331.237 C 150.658 330.491,150.298 329.880,150.127 329.880 C 149.957 329.880,149.453 329.208,149.008 328.386 C 148.101 326.712,147.637 325.934,146.325 323.883 C 145.826 323.104,145.418 322.191,145.418 321.853 C 145.418 321.515,145.070 320.924,144.644 320.538 C 144.218 320.153,143.759 319.331,143.622 318.711 C 143.486 318.092,143.122 317.375,142.814 317.119 C 142.505 316.863,142.139 316.050,142.001 315.313 C 141.862 314.576,141.508 313.773,141.214 313.528 C 140.919 313.284,140.467 312.426,140.209 311.622 C 139.951 310.817,139.508 309.890,139.224 309.562 C 138.940 309.233,138.581 308.426,138.426 307.769 C 138.271 307.112,137.824 306.036,137.432 305.378 C 137.041 304.721,136.589 303.466,136.428 302.590 C 136.267 301.713,135.906 300.637,135.627 300.199 C 135.347 299.761,134.996 298.685,134.845 297.809 C 134.695 296.932,134.311 295.800,133.993 295.293 C 133.674 294.785,133.239 293.290,133.027 291.969 C 132.814 290.649,132.393 289.182,132.090 288.709 C 131.787 288.236,131.410 286.601,131.252 285.075 C 131.094 283.550,130.708 281.688,130.394 280.937 C 130.080 280.184,129.677 277.207,129.496 274.301 C 129.304 271.212,128.946 268.637,128.631 268.081 C 127.902 266.790,127.884 234.536,128.612 233.193 C 128.872 232.714,129.250 229.548,129.454 226.157 C 129.687 222.260,130.034 219.576,130.397 218.861 C 130.713 218.238,131.098 216.402,131.253 214.781 C 131.407 213.159,131.776 211.456,132.071 210.996 C 132.367 210.536,132.794 209.133,133.022 207.878 C 133.249 206.624,133.706 205.074,134.037 204.434 C 134.368 203.794,134.757 202.490,134.902 201.536 C 135.047 200.582,135.391 199.532,135.666 199.203 C 135.941 198.875,136.298 197.978,136.460 197.211 C 136.621 196.444,137.083 195.189,137.485 194.422 C 137.887 193.655,138.313 192.547,138.432 191.960 C 138.550 191.373,138.877 190.656,139.158 190.367 C 139.440 190.077,139.889 189.097,140.157 188.189 C 140.425 187.280,140.912 186.434,141.239 186.309 C 141.565 186.183,141.834 185.672,141.835 185.172 C 141.836 184.672,142.278 183.546,142.818 182.669 C 143.358 181.793,143.805 180.790,143.812 180.440 C 143.819 180.091,144.173 179.489,144.599 179.104 C 145.025 178.719,145.484 177.899,145.619 177.283 C 145.755 176.666,146.105 176.070,146.399 175.958 C 146.692 175.845,147.143 175.113,147.401 174.331 C 147.659 173.548,148.022 172.908,148.207 172.908 C 148.392 172.908,148.751 172.281,149.004 171.514 C 149.257 170.747,149.634 170.120,149.842 170.120 C 150.049 170.120,150.405 169.631,150.631 169.035 C 150.858 168.438,151.290 167.676,151.590 167.341 C 151.890 167.007,152.596 166.232,153.159 165.619 C 153.723 165.007,154.183 164.254,154.183 163.947 C 154.183 163.639,154.622 162.885,155.159 162.272 C 155.696 161.658,156.547 160.657,157.052 160.048 C 157.556 159.439,158.259 158.610,158.616 158.206 C 158.972 157.801,159.330 157.286,159.412 157.061 C 159.619 156.493,163.016 152.592,166.234 149.226 C 167.712 147.680,168.922 146.280,168.923 146.116 C 168.924 145.951,169.082 145.817,169.275 145.817 C 169.468 145.817,171.351 144.158,173.459 142.131 C 175.567 140.105,178.195 137.740,179.297 136.876 C 180.400 136.012,181.832 134.847,182.480 134.286 C 183.128 133.726,184.300 132.819,185.084 132.271 C 185.868 131.723,187.016 130.872,187.635 130.378 C 188.254 129.885,188.952 129.482,189.187 129.482 C 189.421 129.482,189.805 129.124,190.040 128.685 C 190.274 128.247,190.715 127.888,191.019 127.888 C 191.323 127.888,192.105 127.440,192.756 126.892 C 193.407 126.345,194.233 125.896,194.592 125.896 C 194.951 125.896,195.345 125.633,195.469 125.311 C 195.592 124.989,196.304 124.505,197.050 124.235 C 197.796 123.965,198.406 123.602,198.406 123.429 C 198.406 123.116,199.888 122.266,203.044 120.769 C 203.951 120.338,204.805 119.806,204.941 119.586 C 205.077 119.365,205.709 119.070,206.346 118.930 C 206.983 118.791,207.905 118.329,208.395 117.904 C 208.885 117.479,209.684 117.131,210.172 117.131 C 210.659 117.131,211.273 116.872,211.537 116.554 C 211.800 116.237,212.674 115.766,213.478 115.508 C 214.282 115.250,215.212 114.803,215.544 114.514 C 215.877 114.225,217.039 113.790,218.127 113.546 C 219.216 113.302,220.378 112.866,220.711 112.578 C 221.043 112.289,221.952 111.939,222.732 111.800 C 223.511 111.661,224.848 111.190,225.704 110.753 C 226.560 110.317,227.628 109.960,228.078 109.960 C 228.528 109.960,229.537 109.617,230.319 109.198 C 231.102 108.778,232.623 108.307,233.700 108.150 C 234.776 107.993,236.143 107.618,236.737 107.317 C 237.330 107.016,239.194 106.578,240.879 106.343 C 242.564 106.109,244.319 105.683,244.780 105.396 C 245.241 105.109,246.892 104.765,248.449 104.631 C 250.006 104.497,252.068 104.095,253.030 103.737 C 255.934 102.657,296.712 102.109,307.114 103.009 " stroke="none" fill="#b43333" fill-rule="evenodd"></path><path id="path2" d="M38.446 1.563 C 21.667 1.773,19.985 1.856,18.526 2.538 C 17.649 2.947,16.012 3.712,14.887 4.237 C 11.510 5.814,7.992 8.767,5.872 11.804 C 3.880 14.657,1.527 19.796,1.290 21.813 C 1.165 22.884,0.891 23.506,0.546 23.506 C 0.150 23.506,0.000 24.108,0.000 25.697 C 0.000 28.442,0.968 28.807,1.320 26.195 C 2.006 21.123,2.464 18.902,2.941 18.348 C 3.234 18.007,3.671 17.138,3.913 16.417 C 4.155 15.695,4.718 14.591,5.165 13.965 C 5.611 13.338,5.976 12.674,5.977 12.488 C 5.977 12.004,10.087 7.563,10.532 7.567 C 10.737 7.568,11.275 7.231,11.727 6.817 C 12.796 5.838,17.067 3.586,17.853 3.586 C 18.189 3.586,18.810 3.272,19.234 2.888 C 20.397 1.835,378.760 1.799,379.938 2.851 C 380.345 3.214,381.439 3.714,382.371 3.962 C 383.302 4.210,384.064 4.564,384.064 4.748 C 384.064 4.932,384.646 5.315,385.359 5.600 C 386.906 6.217,387.189 6.443,390.139 9.410 C 391.399 10.678,392.430 11.914,392.430 12.157 C 392.430 12.400,392.763 12.956,393.171 13.394 C 393.578 13.831,394.143 14.895,394.426 15.759 C 394.710 16.624,395.228 17.771,395.578 18.309 C 396.664 19.976,396.710 28.716,396.556 207.340 C 396.412 374.312,396.352 382.470,395.268 382.470 C 395.092 382.470,394.715 383.178,394.429 384.043 C 394.144 384.908,393.667 385.709,393.369 385.823 C 393.072 385.937,392.829 386.266,392.829 386.555 C 392.829 387.720,385.174 394.821,383.917 394.821 C 383.704 394.821,383.228 395.093,382.860 395.426 C 382.491 395.760,381.403 396.260,380.440 396.539 C 378.719 397.037,377.703 398.406,379.054 398.406 C 379.399 398.406,379.681 398.141,379.681 397.816 C 379.681 397.492,380.174 397.112,380.777 396.972 C 385.188 395.950,391.982 389.825,395.192 383.977 C 397.767 379.284,397.605 391.563,397.607 201.333 C 397.610 0.029,398.130 21.174,392.949 11.798 C 391.685 9.511,385.485 4.519,382.523 3.403 C 381.727 3.103,380.269 2.541,379.283 2.154 C 377.438 1.431,88.950 0.930,38.446 1.563 M261.155 102.828 C 256.794 103.004,254.228 103.291,253.030 103.737 C 252.068 104.095,250.006 104.497,248.449 104.631 C 246.892 104.765,245.241 105.109,244.780 105.396 C 244.319 105.683,242.564 106.109,240.879 106.343 C 239.194 106.578,237.330 107.016,236.737 107.317 C 236.143 107.618,234.776 107.993,233.700 108.150 C 232.623 108.307,231.102 108.778,230.319 109.198 C 229.537 109.617,228.528 109.960,228.078 109.960 C 227.628 109.960,226.560 110.317,225.704 110.753 C 224.848 111.190,223.511 111.661,222.732 111.800 C 221.952 111.939,221.043 112.289,220.711 112.578 C 220.378 112.866,219.216 113.302,218.127 113.546 C 217.039 113.790,215.877 114.225,215.544 114.514 C 215.212 114.803,214.282 115.250,213.478 115.508 C 212.674 115.766,211.800 116.237,211.537 116.554 C 211.273 116.872,210.659 117.131,210.172 117.131 C 209.684 117.131,208.885 117.479,208.395 117.904 C 207.905 118.329,206.983 118.791,206.346 118.930 C 205.709 119.070,205.077 119.365,204.941 119.586 C 204.805 119.806,203.951 120.338,203.044 120.769 C 199.888 122.266,198.406 123.116,198.406 123.429 C 198.406 123.602,197.796 123.965,197.050 124.235 C 196.304 124.505,195.592 124.989,195.469 125.311 C 195.345 125.633,194.951 125.896,194.592 125.896 C 194.233 125.896,193.407 126.345,192.756 126.892 C 192.105 127.440,191.323 127.888,191.019 127.888 C 190.715 127.888,190.274 128.247,190.040 128.685 C 189.805 129.124,189.421 129.482,189.187 129.482 C 188.952 129.482,188.254 129.885,187.635 130.378 C 187.016 130.872,185.868 131.723,185.084 132.271 C 184.300 132.819,183.128 133.726,182.480 134.286 C 181.832 134.847,180.400 136.012,179.297 136.876 C 178.195 137.740,175.567 140.105,173.459 142.131 C 171.351 144.158,169.468 145.817,169.275 145.817 C 169.082 145.817,168.924 145.951,168.923 146.116 C 168.922 146.280,167.712 147.680,166.234 149.226 C 163.016 152.592,159.619 156.493,159.412 157.061 C 159.330 157.286,158.972 157.801,158.616 158.206 C 158.259 158.610,157.556 159.439,157.052 160.048 C 156.547 160.657,155.696 161.658,155.159 162.272 C 154.622 162.885,154.183 163.639,154.183 163.947 C 154.183 164.254,153.723 165.007,153.159 165.619 C 152.596 166.232,151.890 167.007,151.590 167.341 C 151.290 167.676,150.858 168.438,150.631 169.035 C 150.405 169.631,150.049 170.120,149.842 170.120 C 149.634 170.120,149.257 170.747,149.004 171.514 C 148.751 172.281,148.392 172.908,148.207 172.908 C 148.022 172.908,147.659 173.548,147.401 174.331 C 147.143 175.113,146.692 175.845,146.399 175.958 C 146.105 176.070,145.755 176.666,145.619 177.283 C 145.484 177.899,145.025 178.719,144.599 179.104 C 144.173 179.489,143.819 180.091,143.812 180.440 C 143.805 180.790,143.358 181.793,142.818 182.669 C 142.278 183.546,141.836 184.672,141.835 185.172 C 141.834 185.672,141.565 186.183,141.239 186.309 C 140.912 186.434,140.425 187.280,140.157 188.189 C 139.889 189.097,139.440 190.077,139.158 190.367 C 138.877 190.656,138.550 191.373,138.432 191.960 C 138.313 192.547,137.887 193.655,137.485 194.422 C 137.083 195.189,136.621 196.444,136.460 197.211 C 136.298 197.978,135.941 198.875,135.666 199.203 C 135.391 199.532,135.047 200.582,134.902 201.536 C 134.757 202.490,134.368 203.794,134.037 204.434 C 133.706 205.074,133.249 206.624,133.022 207.878 C 132.794 209.133,132.367 210.536,132.071 210.996 C 131.776 211.456,131.407 213.159,131.253 214.781 C 131.098 216.402,130.713 218.238,130.397 218.861 C 130.034 219.576,129.687 222.260,129.454 226.157 C 129.250 229.548,128.915 232.638,128.709 233.023 C 127.642 235.017,127.896 265.471,129.012 269.323 C 129.458 270.865,129.377 267.950,128.655 256.574 C 128.394 252.456,128.397 249.138,128.666 246.614 C 128.888 244.532,129.071 241.215,129.072 239.243 C 129.075 234.763,129.748 226.824,130.525 222.112 C 130.850 220.139,131.300 217.279,131.526 215.755 C 131.752 214.231,132.191 212.492,132.502 211.890 C 132.813 211.289,133.068 210.414,133.068 209.947 C 133.068 209.480,133.516 207.723,134.064 206.043 C 134.613 204.363,135.530 201.554,136.104 199.801 C 136.677 198.048,137.484 195.885,137.896 194.994 C 138.308 194.103,138.645 193.224,138.645 193.042 C 138.645 192.708,140.436 188.772,141.098 187.649 C 141.292 187.321,141.730 186.424,142.073 185.657 C 143.133 183.281,144.608 180.366,145.800 178.287 C 146.428 177.191,147.221 175.757,147.561 175.100 C 147.901 174.442,148.629 173.187,149.179 172.311 C 149.729 171.434,150.477 170.179,150.842 169.522 C 151.207 168.865,151.615 168.237,151.749 168.127 C 152.206 167.753,154.582 164.589,154.582 164.355 C 154.582 164.106,157.159 160.709,161.089 155.777 C 163.513 152.735,177.459 138.645,178.046 138.645 C 178.223 138.645,178.899 138.152,179.548 137.550 C 181.706 135.546,183.454 134.069,184.618 133.265 C 185.251 132.828,186.254 132.112,186.847 131.673 C 187.926 130.876,193.786 126.964,196.414 125.286 C 200.554 122.644,210.914 117.131,211.739 117.131 C 211.988 117.131,212.392 116.931,212.638 116.685 C 213.140 116.182,217.015 114.497,219.098 113.876 C 219.850 113.651,220.836 113.241,221.289 112.963 C 221.741 112.685,223.008 112.220,224.104 111.928 C 225.199 111.637,226.544 111.166,227.092 110.881 C 227.639 110.596,228.357 110.355,228.685 110.344 C 229.014 110.333,230.000 110.048,230.876 109.711 C 234.416 108.352,249.152 104.781,251.223 104.781 C 251.895 104.781,253.419 104.467,254.609 104.084 C 257.841 103.042,305.456 103.021,309.761 104.059 C 311.295 104.429,313.357 104.832,314.343 104.955 C 315.329 105.078,317.749 105.552,319.721 106.007 C 329.280 108.213,334.096 109.605,337.649 111.187 C 338.526 111.578,339.781 112.027,340.438 112.185 C 341.096 112.343,342.258 112.804,343.022 113.209 C 343.786 113.613,344.647 113.944,344.935 113.944 C 345.224 113.944,346.123 114.283,346.933 114.697 C 347.743 115.111,349.482 115.930,350.797 116.516 C 352.112 117.102,353.456 117.745,353.785 117.944 C 354.114 118.143,355.817 119.037,357.570 119.931 C 365.690 124.073,375.436 130.815,383.325 137.749 C 386.491 140.532,393.710 148.011,394.265 149.085 C 395.014 150.533,395.249 150.221,388.016 157.371 C 383.053 162.277,377.807 167.251,364.143 180.010 C 361.449 182.526,360.535 182.611,358.367 180.545 C 356.844 179.094,355.747 178.118,350.343 173.412 C 349.026 172.264,346.617 170.341,344.990 169.138 C 343.363 167.935,341.616 166.643,341.107 166.267 C 340.100 165.522,340.135 165.543,335.593 162.977 C 333.875 162.006,332.380 161.091,332.271 160.943 C 332.161 160.795,331.414 160.459,330.610 160.197 C 329.805 159.935,328.932 159.460,328.668 159.143 C 328.405 158.825,327.946 158.566,327.649 158.566 C 327.352 158.566,326.164 158.139,325.009 157.617 C 320.096 155.397,319.136 155.019,317.768 154.762 C 316.975 154.613,315.663 154.153,314.852 153.740 C 314.041 153.326,312.791 152.988,312.075 152.988 C 311.359 152.988,310.097 152.720,309.271 152.392 C 307.692 151.765,302.876 150.943,295.219 149.995 C 284.588 148.678,268.206 149.791,256.972 152.594 C 255.986 152.840,254.552 153.195,253.785 153.382 C 250.997 154.064,239.605 158.188,238.247 159.008 C 237.918 159.206,237.201 159.561,236.653 159.797 C 234.867 160.567,231.318 162.483,228.486 164.206 C 227.829 164.606,227.022 165.050,226.693 165.193 C 224.678 166.069,214.792 173.959,211.355 177.435 C 208.188 180.637,202.777 187.079,201.295 189.411 C 200.749 190.270,200.142 191.167,199.946 191.403 C 198.958 192.596,195.236 198.787,194.103 201.122 C 193.818 201.710,193.413 202.460,193.203 202.789 C 192.994 203.118,192.624 203.835,192.380 204.382 C 192.136 204.930,191.536 206.275,191.047 207.371 C 190.557 208.466,189.772 210.393,189.302 211.653 C 188.831 212.913,188.088 214.889,187.649 216.044 C 187.211 217.198,186.853 218.536,186.853 219.017 C 186.853 219.497,186.508 220.838,186.087 221.997 C 185.666 223.156,185.207 225.090,185.067 226.295 C 184.928 227.500,184.510 229.831,184.140 231.474 C 183.124 235.980,183.142 265.462,184.163 268.127 C 184.540 269.114,184.852 270.554,184.855 271.328 C 184.858 272.101,185.129 273.715,185.457 274.913 C 185.784 276.111,186.330 278.257,186.670 279.681 C 187.009 281.106,187.534 282.809,187.836 283.466 C 188.138 284.124,188.515 285.199,188.674 285.857 C 188.833 286.514,189.206 287.405,189.502 287.838 C 189.798 288.270,190.040 288.886,190.040 289.206 C 190.040 289.779,190.303 290.404,192.777 295.692 C 193.463 297.157,194.024 298.525,194.024 298.731 C 194.024 298.937,194.303 299.337,194.645 299.621 C 194.986 299.904,195.518 300.688,195.826 301.363 C 196.134 302.038,196.836 303.307,197.386 304.183 C 197.936 305.060,198.684 306.315,199.050 306.972 C 199.415 307.629,200.092 308.635,200.554 309.208 C 201.016 309.780,201.663 310.662,201.992 311.169 C 202.321 311.676,203.136 312.731,203.805 313.515 C 204.473 314.299,205.577 315.657,206.259 316.534 C 208.233 319.073,214.624 325.178,218.526 328.252 C 220.498 329.806,222.560 331.433,223.108 331.868 C 223.655 332.303,224.306 332.661,224.553 332.664 C 224.800 332.667,225.231 332.945,225.510 333.281 C 225.789 333.618,227.201 334.549,228.646 335.350 C 230.092 336.150,231.365 336.922,231.474 337.065 C 231.711 337.374,238.174 340.477,241.833 342.038 C 243.257 342.646,245.385 343.566,246.562 344.082 C 247.739 344.598,248.926 345.020,249.199 345.020 C 249.473 345.020,250.841 345.386,252.239 345.834 C 255.927 347.014,260.980 348.060,265.538 348.588 C 267.729 348.841,270.508 349.263,271.713 349.524 C 274.686 350.170,291.746 350.156,295.418 349.506 C 296.952 349.234,300.090 348.751,302.390 348.433 C 307.561 347.717,310.424 347.146,312.749 346.366 C 313.735 346.035,315.459 345.508,316.581 345.194 C 318.326 344.706,320.239 343.958,324.104 342.251 C 324.542 342.057,326.245 341.309,327.888 340.589 C 329.532 339.869,331.304 338.958,331.827 338.564 C 332.349 338.171,332.939 337.849,333.138 337.849 C 333.336 337.849,333.984 337.514,334.578 337.104 C 335.172 336.695,337.256 335.330,339.209 334.070 C 341.163 332.811,342.956 331.628,343.193 331.441 C 346.278 329.014,351.377 324.801,352.021 324.146 C 355.336 320.777,360.149 317.129,361.273 317.135 C 361.646 317.136,363.118 318.228,364.542 319.561 C 374.286 328.680,377.576 331.823,385.354 339.442 C 390.162 344.153,394.272 348.333,394.487 348.731 C 395.666 350.920,379.641 365.925,368.451 373.108 C 363.663 376.181,363.138 376.504,361.952 377.100 C 361.295 377.431,359.861 378.229,358.765 378.873 C 357.669 379.518,356.325 380.232,355.777 380.460 C 355.229 380.689,354.512 381.057,354.183 381.278 C 352.937 382.115,342.904 386.450,342.172 386.467 C 341.876 386.474,341.285 386.743,340.860 387.064 C 340.435 387.386,339.729 387.649,339.293 387.649 C 338.856 387.649,337.770 388.000,336.879 388.429 C 335.988 388.858,334.273 389.474,333.068 389.797 C 331.863 390.121,330.339 390.566,329.681 390.785 C 325.956 392.029,314.294 394.678,310.956 395.038 C 309.641 395.180,307.311 395.593,305.777 395.955 C 301.578 396.947,261.516 396.939,256.773 395.946 C 255.020 395.579,252.600 395.169,251.394 395.034 C 249.107 394.779,244.004 393.667,239.243 392.387 C 237.709 391.975,235.647 391.469,234.661 391.263 C 232.135 390.735,225.087 388.366,222.112 387.045 C 221.454 386.753,220.199 386.298,219.323 386.034 C 218.446 385.771,217.281 385.333,216.733 385.062 C 216.185 384.791,214.768 384.142,213.583 383.619 C 210.019 382.047,199.846 376.847,199.172 376.252 C 198.826 375.947,198.396 375.697,198.217 375.697 C 198.038 375.697,196.911 375.025,195.712 374.203 C 194.514 373.381,193.241 372.530,192.884 372.311 C 192.527 372.092,191.700 371.554,191.046 371.116 C 190.392 370.677,189.570 370.139,189.219 369.920 C 182.726 365.868,168.163 352.725,163.169 346.410 C 162.304 345.317,161.228 344.042,160.778 343.577 C 158.909 341.644,155.845 337.624,154.742 335.657 C 154.374 335.000,153.947 334.373,153.794 334.263 C 153.641 334.153,152.857 333.078,152.052 331.873 C 151.248 330.667,150.322 329.331,149.996 328.903 C 149.669 328.475,149.402 327.926,149.402 327.683 C 149.402 327.441,149.089 326.886,148.705 326.452 C 147.754 325.374,142.110 314.486,139.639 308.964 C 138.066 305.447,137.039 302.798,136.632 301.207 C 136.382 300.227,135.926 299.067,135.618 298.628 C 135.311 298.190,135.060 297.516,135.060 297.131 C 135.060 296.746,134.612 295.096,134.064 293.464 C 133.516 291.832,133.068 290.153,133.068 289.732 C 133.068 289.311,132.811 288.446,132.497 287.810 C 132.184 287.174,131.727 285.129,131.483 283.267 C 131.239 281.404,130.857 279.306,130.634 278.604 C 130.412 277.902,130.072 275.840,129.879 274.022 L 129.530 270.717 129.655 275.100 C 129.733 277.810,130.006 280.020,130.373 280.892 C 130.698 281.668,131.094 283.550,131.252 285.075 C 131.410 286.601,131.787 288.236,132.090 288.709 C 132.393 289.182,132.814 290.649,133.027 291.969 C 133.239 293.290,133.674 294.785,133.993 295.293 C 134.311 295.800,134.695 296.932,134.845 297.809 C 134.996 298.685,135.347 299.761,135.627 300.199 C 135.906 300.637,136.267 301.713,136.428 302.590 C 136.589 303.466,137.041 304.721,137.432 305.378 C 137.824 306.036,138.271 307.112,138.426 307.769 C 138.581 308.426,138.940 309.233,139.224 309.562 C 139.508 309.890,139.951 310.817,140.209 311.622 C 140.467 312.426,140.919 313.284,141.214 313.528 C 141.508 313.773,141.862 314.576,142.001 315.313 C 142.139 316.050,142.505 316.863,142.814 317.119 C 143.122 317.375,143.486 318.092,143.622 318.711 C 143.759 319.331,144.218 320.153,144.644 320.538 C 145.070 320.924,145.418 321.515,145.418 321.853 C 145.418 322.191,145.826 323.104,146.325 323.883 C 147.637 325.934,148.101 326.712,149.008 328.386 C 149.453 329.208,149.957 329.880,150.127 329.880 C 150.298 329.880,150.658 330.491,150.928 331.237 C 151.198 331.983,151.682 332.694,152.004 332.818 C 152.326 332.942,152.590 333.311,152.590 333.639 C 152.590 333.967,152.948 334.427,153.386 334.661 C 153.825 334.896,154.183 335.326,154.183 335.617 C 154.183 335.907,154.715 336.842,155.365 337.694 C 156.015 338.546,156.866 339.664,157.257 340.178 C 157.648 340.692,158.394 341.589,158.915 342.170 C 159.436 342.751,160.530 344.124,161.346 345.219 C 165.230 350.434,181.846 365.904,186.421 368.564 C 186.950 368.872,187.667 369.354,188.014 369.636 C 190.106 371.334,191.132 372.033,191.880 372.266 C 192.344 372.412,193.044 372.884,193.435 373.317 C 193.827 373.750,194.389 374.104,194.683 374.104 C 194.978 374.104,195.219 374.286,195.219 374.508 C 195.219 374.731,195.891 375.224,196.713 375.604 C 197.535 375.984,198.343 376.505,198.508 376.762 C 198.674 377.018,199.344 377.346,199.998 377.490 C 200.651 377.633,201.298 377.931,201.434 378.151 C 201.570 378.372,202.449 378.881,203.386 379.283 C 204.324 379.685,205.211 380.208,205.358 380.445 C 205.505 380.682,205.938 380.876,206.321 380.876 C 206.703 380.876,207.624 381.325,208.367 381.873 C 209.109 382.420,210.016 382.869,210.382 382.869 C 210.748 382.869,211.504 383.227,212.061 383.665 C 212.618 384.104,213.368 384.462,213.727 384.462 C 214.085 384.462,215.221 384.910,216.250 385.458 C 217.279 386.006,218.460 386.454,218.874 386.454 C 219.288 386.454,220.186 386.793,220.869 387.208 C 221.553 387.623,222.724 388.092,223.473 388.250 C 224.221 388.409,225.387 388.876,226.062 389.288 C 226.738 389.700,227.704 390.038,228.209 390.038 C 228.714 390.039,229.879 390.379,230.799 390.793 C 231.718 391.207,233.452 391.677,234.652 391.839 C 235.852 392.000,237.196 392.361,237.640 392.641 C 238.083 392.922,239.432 393.275,240.637 393.426 C 241.843 393.577,243.361 393.958,244.012 394.274 C 244.663 394.589,246.976 395.030,249.152 395.253 C 251.396 395.484,253.643 395.952,254.343 396.336 C 256.290 397.402,304.640 397.363,308.106 396.293 C 309.387 395.897,311.987 395.401,313.883 395.190 C 315.779 394.980,317.985 394.550,318.785 394.235 C 319.586 393.921,321.199 393.545,322.371 393.399 C 323.543 393.254,324.875 392.903,325.332 392.618 C 325.788 392.333,327.043 391.974,328.121 391.818 C 329.198 391.663,330.832 391.199,331.751 390.788 C 332.670 390.376,333.836 390.039,334.341 390.038 C 334.846 390.038,335.829 389.690,336.525 389.265 C 337.221 388.841,338.476 388.371,339.314 388.222 C 340.151 388.073,341.396 387.614,342.079 387.203 C 342.762 386.791,343.569 386.453,343.872 386.451 C 344.175 386.449,345.319 386.006,346.414 385.467 C 347.510 384.928,348.698 384.481,349.055 384.475 C 349.411 384.468,349.925 384.195,350.197 383.867 C 350.468 383.540,351.424 383.075,352.321 382.834 C 353.218 382.592,354.138 382.162,354.366 381.879 C 354.594 381.595,355.453 381.150,356.275 380.890 C 357.097 380.629,357.769 380.278,357.769 380.109 C 357.769 379.940,358.441 379.501,359.263 379.134 C 361.733 378.029,363.830 376.864,364.431 376.264 C 364.742 375.952,365.225 375.697,365.505 375.697 C 365.784 375.697,366.336 375.339,366.733 374.900 C 367.130 374.462,367.650 374.103,367.890 374.103 C 368.130 374.103,368.848 373.655,369.484 373.107 C 370.121 372.560,370.805 372.112,371.005 372.112 C 371.205 372.112,372.359 371.305,373.569 370.319 C 374.780 369.333,375.888 368.522,376.033 368.517 C 376.177 368.512,377.147 367.750,378.189 366.824 C 379.231 365.897,380.646 364.691,381.334 364.143 C 386.443 360.073,394.261 352.004,394.946 350.096 C 395.467 348.641,391.010 343.691,379.022 332.411 C 377.892 331.348,375.705 329.268,374.162 327.789 C 372.619 326.310,371.180 325.100,370.964 325.100 C 370.748 325.100,370.458 324.741,370.319 324.303 C 370.180 323.865,369.927 323.506,369.756 323.506 C 369.586 323.506,367.768 321.892,365.715 319.920 C 361.699 316.062,360.951 315.752,359.237 317.231 C 358.666 317.724,357.725 318.486,357.145 318.924 C 356.566 319.363,355.228 320.528,354.171 321.514 C 353.114 322.500,351.598 323.845,350.801 324.502 C 350.005 325.159,348.602 326.365,347.684 327.181 C 346.767 327.996,345.908 328.669,345.775 328.675 C 345.643 328.680,345.067 329.089,344.496 329.582 C 342.171 331.589,336.628 335.334,335.149 335.898 C 334.651 336.088,334.138 336.515,334.011 336.847 C 333.884 337.179,333.485 337.453,333.125 337.456 C 332.765 337.459,332.022 337.715,331.474 338.024 C 329.482 339.148,325.673 340.956,324.701 341.239 C 324.153 341.398,323.436 341.760,323.108 342.042 C 322.779 342.324,321.719 342.766,320.753 343.023 C 319.787 343.281,318.622 343.732,318.164 344.027 C 317.705 344.322,316.614 344.686,315.737 344.836 C 314.861 344.986,313.773 345.341,313.319 345.624 C 312.866 345.907,311.073 346.354,309.335 346.616 C 307.597 346.879,305.828 347.279,305.403 347.505 C 304.979 347.732,302.469 348.067,299.826 348.250 C 297.182 348.433,293.515 348.882,291.675 349.246 C 286.932 350.187,274.656 349.543,263.944 347.792 C 257.104 346.674,254.689 346.170,253.785 345.670 C 253.237 345.367,251.922 344.994,250.862 344.841 C 249.802 344.688,248.117 344.127,247.117 343.596 C 246.118 343.064,245.063 342.629,244.774 342.629 C 244.256 342.629,242.255 341.737,239.363 340.217 C 238.553 339.791,237.636 339.442,237.325 339.442 C 237.015 339.442,236.319 339.095,235.779 338.670 C 235.239 338.245,234.332 337.781,233.763 337.638 C 233.194 337.495,232.418 337.036,232.039 336.618 C 231.661 336.199,231.098 335.857,230.788 335.857 C 230.479 335.857,229.638 335.408,228.920 334.861 C 228.202 334.313,227.504 333.865,227.371 333.865 C 227.136 333.865,225.149 332.603,223.129 331.169 C 218.036 327.557,208.145 318.337,205.378 314.623 C 204.940 314.035,204.223 313.121,203.785 312.592 C 201.767 310.157,199.602 306.955,199.602 306.406 C 199.602 306.223,199.305 305.828,198.942 305.527 C 198.580 305.226,198.035 304.442,197.732 303.785 C 197.429 303.127,196.653 301.783,196.007 300.797 C 195.362 299.811,194.636 298.556,194.396 298.008 C 194.155 297.460,193.640 296.384,193.252 295.618 C 192.864 294.851,192.417 293.685,192.258 293.028 C 192.100 292.371,191.742 291.564,191.464 291.235 C 191.186 290.906,190.728 289.786,190.447 288.745 C 190.166 287.704,189.788 286.853,189.608 286.853 C 189.427 286.853,189.175 286.180,189.048 285.359 C 188.920 284.537,188.470 283.147,188.047 282.271 C 187.625 281.394,187.162 279.691,187.020 278.486 C 186.878 277.281,186.512 275.897,186.207 275.410 C 185.903 274.923,185.476 272.806,185.258 270.706 C 185.040 268.606,184.593 265.598,184.264 264.021 C 183.421 259.980,183.409 239.405,184.247 235.782 C 184.568 234.399,185.002 231.474,185.212 229.283 C 185.422 227.092,185.860 224.671,186.185 223.904 C 186.509 223.137,186.907 221.434,187.068 220.120 C 187.231 218.790,187.690 217.307,188.103 216.779 C 188.511 216.256,188.850 215.360,188.857 214.787 C 188.864 214.214,189.311 212.849,189.849 211.753 C 190.388 210.657,190.831 209.469,190.833 209.113 C 190.835 208.756,191.083 208.259,191.385 208.009 C 191.686 207.759,192.157 206.755,192.430 205.777 C 192.704 204.799,193.175 203.795,193.476 203.544 C 193.777 203.294,194.024 202.788,194.024 202.419 C 194.024 202.050,194.472 201.141,195.020 200.398 C 195.568 199.656,196.016 198.842,196.016 198.590 C 196.016 198.338,196.375 197.807,196.813 197.410 C 197.251 197.014,197.610 196.493,197.610 196.253 C 197.611 196.013,198.326 194.831,199.201 193.625 C 200.075 192.420,201.016 190.989,201.292 190.444 C 201.567 189.899,202.025 189.182,202.310 188.850 C 202.594 188.518,204.248 186.464,205.986 184.284 C 207.723 182.104,209.418 180.168,209.752 179.981 C 210.086 179.794,210.359 179.382,210.359 179.064 C 210.359 178.746,210.544 178.486,210.770 178.486 C 211.306 178.486,213.944 175.848,213.944 175.312 C 213.944 175.086,214.162 174.900,214.428 174.900 C 214.694 174.900,215.277 174.539,215.723 174.096 C 216.169 173.654,217.699 172.410,219.124 171.331 C 220.548 170.252,222.017 169.100,222.389 168.770 C 222.761 168.440,223.613 167.887,224.282 167.541 C 224.951 167.195,225.498 166.751,225.498 166.555 C 225.498 166.358,226.125 165.990,226.892 165.737 C 227.659 165.484,228.287 165.125,228.287 164.940 C 228.287 164.755,228.927 164.392,229.709 164.134 C 230.491 163.876,231.228 163.414,231.345 163.107 C 231.463 162.801,231.874 162.550,232.258 162.550 C 232.642 162.550,233.590 162.120,234.364 161.595 C 235.138 161.070,236.328 160.518,237.009 160.368 C 237.690 160.218,238.247 159.938,238.247 159.745 C 238.247 159.552,239.099 159.136,240.139 158.821 C 241.180 158.506,242.570 157.962,243.227 157.613 C 243.884 157.263,244.694 156.976,245.026 156.975 C 245.358 156.973,246.254 156.640,247.018 156.234 C 247.782 155.828,249.124 155.366,250.000 155.208 C 250.876 155.050,251.969 154.680,252.427 154.385 C 252.885 154.090,254.926 153.562,256.962 153.210 C 258.998 152.859,260.857 152.452,261.093 152.306 C 261.631 151.974,271.440 150.634,276.494 150.203 C 281.857 149.746,290.712 149.763,292.829 150.235 C 293.815 150.455,297.319 150.959,300.616 151.356 C 303.913 151.752,306.961 152.262,307.389 152.489 C 307.817 152.716,309.422 153.096,310.956 153.333 C 312.490 153.571,314.455 154.128,315.323 154.572 C 316.191 155.015,317.380 155.378,317.964 155.378 C 318.548 155.378,319.231 155.626,319.482 155.928 C 319.733 156.230,320.499 156.590,321.185 156.727 C 322.477 156.986,324.735 157.937,327.988 159.594 C 329.029 160.124,330.122 160.558,330.417 160.558 C 330.711 160.558,331.277 160.916,331.673 161.355 C 332.070 161.793,332.697 162.151,333.068 162.151 C 333.438 162.151,334.262 162.599,334.898 163.147 C 335.535 163.694,336.292 164.143,336.580 164.143 C 336.869 164.143,337.693 164.592,338.411 165.139 C 339.129 165.687,339.834 166.135,339.978 166.135 C 340.122 166.135,340.553 166.416,340.936 166.758 C 341.320 167.101,342.351 167.901,343.227 168.537 C 347.258 171.462,350.751 174.308,353.741 177.103 C 359.650 182.625,360.387 183.253,360.956 183.247 C 361.545 183.241,363.557 181.452,370.828 174.468 C 372.862 172.514,374.583 170.916,374.653 170.916 C 374.723 170.916,376.353 169.392,378.275 167.530 C 380.197 165.667,381.916 164.143,382.093 164.143 C 382.271 164.143,382.530 163.785,382.669 163.347 C 382.808 162.908,383.088 162.550,383.291 162.550 C 383.494 162.550,384.891 161.340,386.396 159.861 C 387.901 158.381,389.740 156.599,390.482 155.900 C 394.969 151.676,395.928 149.647,394.273 147.879 C 389.531 142.810,383.368 136.955,379.283 133.638 C 378.297 132.838,377.430 132.023,377.357 131.828 C 377.284 131.633,377.022 131.474,376.774 131.474 C 376.526 131.474,375.958 131.111,375.512 130.668 C 374.127 129.292,371.628 127.490,371.103 127.490 C 370.828 127.490,370.500 127.221,370.374 126.892 C 370.248 126.564,369.895 126.295,369.589 126.295 C 369.284 126.295,368.357 125.757,367.530 125.100 C 366.703 124.442,365.782 123.904,365.483 123.904 C 365.185 123.904,364.940 123.746,364.940 123.551 C 364.940 123.357,364.272 122.881,363.456 122.494 C 362.640 122.107,361.731 121.548,361.436 121.253 C 361.141 120.958,360.667 120.717,360.384 120.717 C 360.100 120.717,359.441 120.383,358.918 119.975 C 358.396 119.567,357.520 119.094,356.972 118.924 C 356.424 118.754,355.549 118.282,355.026 117.873 C 354.503 117.465,353.763 117.131,353.382 117.131 C 353.000 117.131,352.465 116.863,352.193 116.536 C 351.921 116.208,350.958 115.726,350.052 115.464 C 349.147 115.203,347.979 114.664,347.456 114.267 C 346.934 113.870,346.017 113.546,345.418 113.546 C 344.820 113.546,343.882 113.193,343.334 112.762 C 342.787 112.331,341.600 111.861,340.699 111.717 C 339.797 111.572,338.858 111.213,338.613 110.917 C 338.368 110.621,337.513 110.263,336.713 110.121 C 335.913 109.979,334.721 109.542,334.064 109.150 C 333.406 108.757,331.972 108.308,330.876 108.151 C 329.781 107.993,328.436 107.639,327.888 107.363 C 327.341 107.087,325.621 106.665,324.068 106.425 C 322.514 106.185,320.632 105.739,319.884 105.434 C 319.137 105.130,317.185 104.753,315.545 104.598 C 313.906 104.443,311.997 104.079,311.304 103.790 C 308.848 102.763,277.560 102.163,261.155 102.828 M0.000 377.092 C 0.000 377.711,0.226 378.088,0.598 378.088 C 0.926 378.088,1.195 378.313,1.195 378.587 C 1.195 379.132,3.855 384.563,5.285 386.937 C 7.738 391.011,14.051 396.143,17.629 396.972 C 18.232 397.112,18.725 397.492,18.725 397.816 C 18.725 398.141,19.007 398.406,19.352 398.406 C 20.437 398.406,19.789 397.051,18.522 396.672 C 16.484 396.063,14.528 395.018,11.702 393.028 C 9.607 391.552,6.113 387.663,5.548 386.177 C 5.356 385.672,5.015 385.259,4.791 385.259 C 4.566 385.259,4.382 385.072,4.382 384.844 C 4.382 384.616,3.863 383.316,3.228 381.955 C 2.593 380.595,1.869 378.720,1.619 377.789 C 1.114 375.908,0.000 375.428,0.000 377.092 " stroke="none" fill="#c57d7d" fill-rule="evenodd"></path><path id="path3" d="M21.912 0.543 C 21.912 0.888,21.237 1.180,20.068 1.340 C 19.053 1.479,17.664 1.931,16.980 2.344 C 16.296 2.758,15.317 3.224,14.803 3.380 C 13.621 3.738,10.829 5.615,9.164 7.171 C 8.460 7.828,7.762 8.367,7.613 8.367 C 7.465 8.367,7.025 8.904,6.637 9.562 C 6.249 10.219,5.762 10.757,5.555 10.757 C 5.348 10.757,5.179 10.955,5.179 11.197 C 5.179 11.440,4.731 12.171,4.183 12.822 C 3.635 13.473,3.187 14.278,3.187 14.610 C 3.187 14.943,2.855 15.692,2.449 16.273 C 2.042 16.855,1.591 17.824,1.445 18.426 C 1.299 19.029,0.915 19.522,0.590 19.522 C 0.181 19.522,0.000 19.950,0.000 20.916 C 0.000 21.890,0.180 22.311,0.598 22.311 C 0.985 22.311,1.195 21.922,1.195 21.205 C 1.195 20.597,1.727 19.028,2.378 17.719 C 3.028 16.410,3.566 15.208,3.573 15.048 C 3.746 11.019,14.707 2.722,21.401 1.552 C 22.639 1.335,95.450 1.230,201.282 1.291 C 299.073 1.348,378.501 1.338,377.789 1.270 C 376.987 1.192,376.494 0.927,376.494 0.572 C 376.494 0.076,353.054 0.000,199.203 0.000 C 49.729 0.000,21.912 0.085,21.912 0.543 M381.740 2.772 C 384.952 4.163,386.772 5.284,389.442 7.516 C 392.278 9.887,395.736 15.467,396.882 19.522 C 397.288 20.958,397.413 56.753,397.510 199.203 C 397.642 393.249,397.776 380.556,395.560 383.727 C 395.153 384.308,394.821 384.894,394.821 385.028 C 394.821 385.979,389.774 391.915,387.851 393.227 C 384.794 395.312,382.525 396.666,381.509 397.012 C 380.229 397.448,379.635 398.406,380.644 398.406 C 380.991 398.406,381.275 398.160,381.275 397.859 C 381.275 397.557,381.792 397.207,382.424 397.081 C 386.518 396.262,395.617 386.915,396.841 382.271 C 397.015 381.614,397.439 380.307,397.785 379.368 C 398.852 376.465,398.529 22.651,397.456 19.522 C 396.434 16.543,394.730 13.018,394.124 12.630 C 393.850 12.454,393.625 12.082,393.625 11.802 C 393.625 9.564,382.865 1.558,379.924 1.608 C 379.462 1.616,380.279 2.140,381.740 2.772 M259.163 103.431 C 258.506 103.521,256.803 103.845,255.378 104.151 C 253.954 104.458,251.355 104.923,249.602 105.184 C 247.849 105.446,245.697 105.898,244.821 106.189 C 243.944 106.480,242.420 106.826,241.434 106.960 C 239.699 107.194,235.967 108.190,232.271 109.407 C 231.285 109.731,229.671 110.244,228.685 110.547 C 226.197 111.310,222.345 112.687,220.916 113.323 C 220.259 113.616,219.273 113.988,218.725 114.150 C 216.808 114.716,205.377 120.255,201.160 122.662 C 200.154 123.236,198.737 124.038,198.010 124.445 C 197.283 124.852,196.492 125.349,196.253 125.551 C 196.013 125.752,194.920 126.477,193.825 127.162 C 191.616 128.542,189.609 129.914,187.353 131.587 C 186.530 132.197,185.229 133.119,184.462 133.636 C 183.695 134.152,182.502 135.087,181.810 135.714 C 181.119 136.340,179.864 137.390,179.022 138.048 C 171.277 144.091,158.480 158.352,152.443 167.668 C 148.870 173.181,147.898 174.790,147.631 175.629 C 147.480 176.105,147.211 176.494,147.033 176.494 C 146.856 176.494,146.470 177.077,146.176 177.789 C 145.882 178.501,144.978 180.293,144.167 181.770 C 143.356 183.248,142.486 185.086,142.232 185.854 C 141.978 186.622,141.636 187.251,141.470 187.251 C 141.305 187.251,140.977 187.834,140.742 188.546 C 140.507 189.258,139.654 191.365,138.846 193.227 C 138.038 195.090,137.221 197.151,137.030 197.809 C 136.481 199.705,135.033 204.054,134.443 205.578 C 134.146 206.345,133.695 208.048,133.442 209.363 C 133.189 210.677,132.840 211.932,132.667 212.151 C 132.495 212.371,132.062 214.343,131.705 216.534 C 131.349 218.725,130.794 222.042,130.471 223.904 C 129.106 231.792,128.319 253.557,129.098 261.908 C 129.325 264.343,129.660 268.038,129.842 270.120 C 130.056 272.566,130.086 270.735,129.927 264.940 C 129.451 247.584,129.903 227.886,130.854 224.502 C 131.162 223.406,131.630 220.896,131.895 218.924 C 132.160 216.952,132.711 214.278,133.120 212.982 C 133.530 211.686,133.865 210.197,133.865 209.673 C 133.865 209.150,134.201 207.969,134.613 207.050 C 135.024 206.131,135.482 204.531,135.632 203.495 C 135.781 202.460,136.060 201.515,136.252 201.396 C 136.444 201.278,136.898 200.161,137.260 198.914 C 137.622 197.668,138.172 196.287,138.481 195.845 C 138.791 195.403,139.044 194.733,139.044 194.355 C 139.044 193.977,139.492 192.825,140.040 191.794 C 140.588 190.764,141.036 189.611,141.036 189.232 C 141.036 188.854,141.303 188.322,141.631 188.050 C 141.958 187.779,142.413 186.860,142.642 186.009 C 142.871 185.158,143.217 184.462,143.411 184.462 C 143.604 184.462,143.979 183.790,144.243 182.968 C 144.506 182.146,144.951 181.205,145.230 180.876 C 145.509 180.548,146.025 179.651,146.378 178.884 C 146.730 178.118,147.458 176.773,147.997 175.896 C 148.535 175.020,149.241 173.751,149.565 173.076 C 149.888 172.401,150.432 171.617,150.774 171.334 C 151.115 171.051,151.394 170.594,151.394 170.319 C 151.394 170.044,151.647 169.609,151.955 169.353 C 152.264 169.097,152.810 168.268,153.169 167.512 C 153.528 166.755,153.981 166.135,154.175 166.135 C 154.369 166.135,154.641 165.778,154.780 165.341 C 154.919 164.904,155.292 164.286,155.610 163.968 C 156.634 162.944,158.964 159.766,158.964 159.392 C 158.964 159.193,159.113 158.971,159.294 158.898 C 159.476 158.825,160.670 157.510,161.947 155.976 C 165.766 151.390,180.001 137.450,180.865 137.450 C 181.011 137.450,181.511 137.047,181.975 136.554 C 182.440 136.061,183.298 135.299,183.883 134.861 C 184.469 134.422,185.511 133.616,186.200 133.068 C 186.889 132.520,187.745 131.892,188.102 131.673 C 190.143 130.422,193.525 128.036,194.139 127.414 C 194.531 127.018,195.181 126.693,195.584 126.693 C 195.987 126.693,196.530 126.437,196.790 126.123 C 197.331 125.471,204.898 121.116,205.489 121.116 C 205.703 121.116,206.092 120.858,206.353 120.544 C 206.614 120.229,207.345 119.858,207.977 119.719 C 208.609 119.580,209.538 119.147,210.041 118.755 C 210.544 118.364,211.628 117.825,212.450 117.557 C 213.272 117.289,213.944 116.922,213.944 116.742 C 213.944 116.562,214.841 116.199,215.937 115.936 C 217.034 115.673,218.023 115.308,218.136 115.126 C 218.249 114.943,219.324 114.508,220.525 114.158 C 221.726 113.809,222.709 113.360,222.709 113.161 C 222.709 112.961,223.561 112.676,224.602 112.527 C 225.642 112.378,227.032 111.942,227.689 111.558 C 228.347 111.173,229.659 110.742,230.606 110.599 C 231.552 110.457,232.718 110.089,233.195 109.783 C 233.673 109.476,234.960 109.099,236.056 108.943 C 237.151 108.788,238.496 108.435,239.044 108.157 C 239.592 107.880,241.473 107.436,243.224 107.171 C 244.976 106.906,247.037 106.454,247.806 106.167 C 248.574 105.879,250.458 105.531,251.992 105.392 C 253.526 105.253,256.036 104.835,257.570 104.462 C 261.057 103.615,299.201 103.451,303.386 104.265 C 304.701 104.521,307.839 104.933,310.359 105.181 C 312.878 105.428,315.657 105.876,316.534 106.175 C 317.410 106.474,319.399 106.908,320.952 107.138 C 322.506 107.369,324.427 107.829,325.222 108.161 C 326.017 108.493,327.077 108.773,327.577 108.782 C 328.077 108.792,329.203 109.076,330.080 109.413 C 330.956 109.750,332.625 110.266,333.788 110.560 C 334.952 110.854,336.300 111.354,336.785 111.672 C 337.270 111.990,338.425 112.378,339.351 112.534 C 340.278 112.691,341.036 112.975,341.036 113.166 C 341.036 113.358,341.798 113.720,342.729 113.971 C 344.616 114.481,347.102 115.568,352.325 118.168 C 354.261 119.132,356.080 119.920,356.366 119.920 C 356.653 119.920,356.984 120.172,357.102 120.480 C 357.220 120.788,357.854 121.158,358.511 121.303 C 359.168 121.447,359.928 121.833,360.200 122.160 C 360.471 122.487,361.246 123.010,361.920 123.322 C 363.664 124.128,365.388 125.165,366.702 126.199 C 367.326 126.690,368.081 127.092,368.380 127.092 C 368.680 127.092,368.924 127.241,368.924 127.423 C 368.924 127.605,369.417 128.003,370.020 128.308 C 370.623 128.612,371.384 129.095,371.713 129.380 C 372.042 129.665,373.028 130.426,373.904 131.071 C 376.620 133.069,377.335 133.632,378.466 134.661 C 379.067 135.209,380.518 136.464,381.689 137.450 C 389.879 144.343,394.516 149.769,393.361 151.108 C 392.308 152.330,387.245 157.281,381.863 162.351 C 379.305 164.761,376.360 167.540,375.320 168.526 C 374.280 169.512,371.674 171.932,369.529 173.904 C 367.384 175.876,364.771 178.342,363.724 179.382 C 361.266 181.823,360.627 181.787,357.843 179.044 C 356.597 177.817,354.457 175.903,353.088 174.791 C 351.718 173.679,350.598 172.621,350.598 172.440 C 350.598 172.260,350.394 172.112,350.145 172.112 C 349.897 172.112,349.292 171.708,348.801 171.215 C 348.311 170.722,347.443 169.960,346.873 169.522 C 346.302 169.084,345.428 168.410,344.930 168.024 C 342.931 166.477,336.977 162.655,334.861 161.562 C 334.203 161.222,333.396 160.766,333.068 160.548 C 332.739 160.329,331.843 159.881,331.076 159.552 C 330.309 159.222,329.412 158.790,329.084 158.591 C 327.859 157.852,325.248 156.680,323.705 156.176 C 322.829 155.890,321.753 155.432,321.315 155.158 C 320.876 154.884,319.890 154.535,319.124 154.382 C 318.357 154.230,317.345 153.862,316.876 153.566 C 316.407 153.269,314.793 152.813,313.290 152.552 C 311.787 152.290,310.199 151.852,309.761 151.578 C 309.323 151.303,307.709 150.957,306.175 150.808 C 304.641 150.658,302.580 150.253,301.594 149.908 C 297.876 148.605,266.846 148.798,265.211 150.134 C 264.952 150.345,263.307 150.644,261.554 150.798 C 259.801 150.952,257.978 151.323,257.504 151.622 C 257.030 151.920,255.446 152.356,253.984 152.590 C 252.522 152.823,250.938 153.264,250.464 153.569 C 249.990 153.875,248.884 154.247,248.008 154.398 C 247.131 154.548,246.056 154.893,245.618 155.164 C 245.179 155.434,244.104 155.876,243.227 156.145 C 242.351 156.414,241.096 156.869,240.438 157.157 C 238.369 158.064,236.476 158.947,235.857 159.296 C 234.526 160.045,232.781 160.944,231.227 161.681 C 230.324 162.109,229.462 162.659,229.311 162.903 C 229.160 163.147,228.759 163.347,228.420 163.347 C 228.082 163.347,227.272 163.795,226.621 164.343 C 225.970 164.890,225.225 165.339,224.966 165.339 C 224.707 165.339,224.271 165.697,223.997 166.135 C 223.723 166.574,223.305 166.932,223.068 166.932 C 222.830 166.932,222.159 167.302,221.577 167.755 C 215.071 172.808,214.657 173.147,213.441 174.421 C 213.170 174.706,212.715 175.154,212.431 175.417 C 211.674 176.119,207.929 180.003,206.773 181.287 C 203.874 184.506,202.301 186.516,200.703 189.044 C 200.426 189.482,200.099 189.930,199.977 190.040 C 199.393 190.562,195.278 197.120,195.039 197.908 C 194.889 198.401,194.614 198.805,194.426 198.805 C 194.239 198.805,193.866 199.477,193.598 200.299 C 193.330 201.121,192.779 202.220,192.372 202.743 C 191.966 203.266,191.629 203.983,191.625 204.337 C 191.620 204.691,191.265 205.428,190.837 205.976 C 190.408 206.524,190.054 207.242,190.049 207.573 C 190.044 207.903,189.592 209.016,189.044 210.045 C 188.496 211.074,188.048 212.332,188.048 212.841 C 188.048 213.350,187.801 214.121,187.500 214.553 C 187.198 214.985,186.720 216.414,186.438 217.729 C 186.155 219.044,185.767 220.326,185.576 220.578 C 185.384 220.830,185.047 222.174,184.826 223.566 C 184.605 224.957,184.033 227.620,183.556 229.482 C 182.730 232.701,182.688 233.705,182.688 249.801 L 182.688 266.733 183.774 271.051 C 184.372 273.426,184.861 275.730,184.861 276.170 C 184.861 276.611,185.116 277.536,185.428 278.227 C 185.740 278.917,186.190 280.440,186.428 281.612 C 186.666 282.783,187.128 284.122,187.454 284.589 C 187.781 285.055,188.049 285.800,188.051 286.244 C 188.053 286.688,188.496 287.948,189.035 289.044 C 189.574 290.139,190.021 291.269,190.027 291.555 C 190.034 291.840,190.384 292.736,190.804 293.547 C 191.224 294.357,191.770 295.468,192.018 296.016 C 192.644 297.398,193.597 299.287,194.028 300.000 C 194.227 300.329,195.049 301.746,195.855 303.150 C 200.999 312.112,209.208 321.814,216.733 327.825 C 218.157 328.963,219.607 330.160,219.954 330.485 C 220.301 330.810,220.788 331.076,221.035 331.076 C 221.283 331.076,221.668 331.415,221.890 331.831 C 222.112 332.246,222.791 332.784,223.398 333.026 C 224.005 333.268,225.488 334.183,226.693 335.059 C 227.898 335.935,229.084 336.652,229.329 336.653 C 229.573 336.653,230.215 337.001,230.755 337.426 C 231.294 337.850,232.202 338.315,232.772 338.457 C 233.341 338.600,233.904 338.970,234.022 339.279 C 234.141 339.588,234.468 339.841,234.748 339.842 C 235.029 339.843,236.335 340.380,237.649 341.036 C 238.964 341.692,240.242 342.229,240.489 342.230 C 240.736 342.230,241.161 342.500,241.434 342.829 C 241.707 343.157,242.222 343.428,242.579 343.430 C 242.935 343.432,244.124 343.875,245.219 344.413 C 246.315 344.952,247.620 345.399,248.120 345.406 C 248.620 345.413,249.696 345.719,250.511 346.087 C 251.325 346.455,252.978 346.981,254.183 347.255 C 255.388 347.529,257.355 348.035,258.553 348.379 C 259.751 348.723,261.275 349.004,261.939 349.005 C 262.604 349.006,265.299 349.371,267.928 349.817 C 277.979 351.522,298.120 350.790,307.769 348.370 C 309.084 348.040,311.114 347.595,312.281 347.381 C 313.447 347.167,314.802 346.729,315.292 346.408 C 315.782 346.088,317.148 345.642,318.329 345.418 C 319.510 345.194,320.576 344.868,320.697 344.694 C 320.817 344.520,321.544 344.144,322.311 343.859 C 323.078 343.574,324.243 343.094,324.900 342.793 C 325.558 342.492,326.723 341.977,327.490 341.648 C 328.257 341.320,329.153 340.888,329.482 340.688 C 329.811 340.488,330.528 340.114,331.076 339.857 C 332.737 339.077,334.600 337.999,337.244 336.289 C 338.629 335.394,339.950 334.661,340.180 334.661 C 340.410 334.661,340.741 334.421,340.916 334.127 C 341.092 333.833,342.149 332.969,343.266 332.207 C 345.510 330.677,345.645 330.573,348.199 328.406 C 349.181 327.574,350.224 326.713,350.518 326.494 C 350.811 326.275,351.890 325.289,352.916 324.303 C 359.170 318.290,361.084 317.440,363.464 319.622 C 369.663 325.304,372.969 328.408,377.788 333.068 C 386.748 341.734,394.024 349.057,394.024 349.409 C 394.024 350.318,380.252 364.143,379.347 364.143 C 379.218 364.143,378.747 364.506,378.301 364.949 C 377.855 365.392,376.773 366.283,375.896 366.928 C 373.563 368.644,372.843 369.185,371.514 370.218 C 370.857 370.729,369.826 371.360,369.223 371.621 C 368.621 371.881,368.127 372.260,368.127 372.462 C 368.127 372.665,367.634 373.029,367.032 373.271 C 366.429 373.513,365.129 374.243,364.143 374.893 C 363.157 375.542,361.678 376.367,360.857 376.726 C 360.035 377.084,359.363 377.510,359.363 377.672 C 359.363 377.834,358.690 378.257,357.869 378.611 C 357.047 378.966,356.106 379.429,355.777 379.641 C 354.746 380.305,349.957 382.470,349.519 382.470 C 349.290 382.470,348.878 382.739,348.606 383.068 C 348.333 383.396,347.818 383.667,347.461 383.669 C 347.105 383.671,345.916 384.114,344.821 384.653 C 343.725 385.191,342.597 385.638,342.315 385.645 C 342.032 385.652,341.136 385.992,340.323 386.400 C 339.510 386.809,338.159 387.268,337.322 387.420 C 336.484 387.572,335.229 388.044,334.533 388.468 C 333.837 388.893,332.764 389.241,332.149 389.242 C 331.535 389.242,330.264 389.593,329.324 390.021 C 328.385 390.449,326.495 390.980,325.123 391.200 C 323.752 391.421,322.423 391.767,322.171 391.969 C 321.919 392.171,320.100 392.558,318.127 392.829 C 316.155 393.100,314.348 393.476,314.112 393.665 C 313.875 393.854,311.903 394.201,309.729 394.435 C 307.555 394.670,305.060 395.039,304.183 395.256 C 299.235 396.480,268.017 396.595,260.359 395.418 C 258.386 395.115,255.518 394.752,253.984 394.613 C 252.450 394.473,249.925 394.031,248.373 393.631 C 246.820 393.230,244.489 392.770,243.193 392.609 C 241.897 392.448,240.478 392.089,240.040 391.813 C 239.602 391.537,238.276 391.184,237.094 391.028 C 235.912 390.873,234.208 390.412,233.309 390.003 C 232.409 389.595,231.222 389.257,230.671 389.252 C 230.120 389.247,229.000 388.884,228.183 388.446 C 227.365 388.008,226.382 387.648,225.997 387.646 C 225.613 387.644,224.402 387.201,223.307 386.662 C 222.211 386.123,220.990 385.677,220.593 385.670 C 220.196 385.663,218.851 385.189,217.605 384.617 C 216.358 384.045,214.622 383.253,213.745 382.858 C 208.627 380.550,206.551 379.550,206.375 379.310 C 206.265 379.160,205.548 378.790,204.781 378.486 C 204.014 378.182,203.297 377.809,203.187 377.657 C 203.078 377.505,202.361 377.082,201.594 376.717 C 199.381 375.663,197.612 374.628,196.853 373.941 C 196.468 373.592,195.956 373.307,195.716 373.307 C 195.476 373.307,194.773 372.889,194.154 372.379 C 193.535 371.868,192.759 371.330,192.430 371.183 C 192.102 371.036,190.757 370.104,189.442 369.113 C 188.127 368.121,186.514 366.962,185.857 366.536 C 184.477 365.644,183.459 364.842,181.492 363.098 C 180.720 362.413,179.284 361.248,178.302 360.508 C 176.529 359.174,164.965 347.560,162.834 344.973 C 162.224 344.232,161.494 343.357,161.212 343.028 C 160.930 342.699,160.085 341.624,159.334 340.637 C 158.583 339.651,157.878 338.755,157.769 338.645 C 157.124 338.000,154.976 335.054,154.954 334.784 C 154.939 334.607,154.309 333.655,153.554 332.669 C 152.798 331.683,151.911 330.294,151.583 329.582 C 151.254 328.870,150.821 328.287,150.619 328.287 C 150.418 328.287,150.131 327.883,149.981 327.390 C 149.832 326.897,149.400 326.135,149.023 325.697 C 148.645 325.259,147.982 324.183,147.550 323.307 C 147.117 322.430,145.833 319.946,144.696 317.786 C 143.560 315.627,142.629 313.634,142.629 313.358 C 142.629 313.082,142.271 312.401,141.833 311.843 C 141.394 311.286,141.036 310.608,141.036 310.336 C 141.036 310.063,140.609 308.926,140.088 307.809 C 138.073 303.489,137.450 301.945,137.450 301.269 C 137.450 300.883,137.103 299.886,136.679 299.055 C 136.255 298.223,135.728 296.702,135.508 295.675 C 135.288 294.649,134.829 293.274,134.488 292.621 C 134.148 291.968,133.868 290.881,133.867 290.205 C 133.866 289.529,133.522 287.916,133.104 286.620 C 132.686 285.323,132.120 282.560,131.846 280.478 C 131.572 278.396,131.107 276.066,130.813 275.299 L 130.277 273.904 130.418 275.299 C 130.678 277.865,132.348 287.044,132.665 287.649 C 132.837 287.978,133.198 289.323,133.467 290.637 C 133.736 291.952,134.180 293.476,134.454 294.024 C 134.729 294.572,135.082 295.729,135.239 296.595 C 135.396 297.461,135.868 298.844,136.288 299.667 C 136.708 300.490,137.052 301.462,137.052 301.827 C 137.052 303.682,146.911 324.202,148.810 326.301 C 149.136 326.661,149.403 327.120,149.403 327.322 C 149.403 327.524,150.148 328.765,151.057 330.080 C 151.966 331.394,153.703 333.904,154.916 335.657 C 161.509 345.185,173.941 358.380,181.469 363.839 C 181.691 364.000,182.410 364.553,183.068 365.069 C 187.680 368.688,191.220 371.216,192.302 371.662 C 192.998 371.949,193.665 372.437,193.784 372.746 C 193.902 373.054,194.251 373.307,194.560 373.307 C 194.869 373.307,195.353 373.586,195.637 373.927 C 195.920 374.269,196.704 374.801,197.379 375.111 C 198.053 375.420,199.681 376.309,200.996 377.086 C 202.311 377.863,203.924 378.761,204.582 379.082 C 205.239 379.403,206.046 379.834,206.375 380.041 C 207.372 380.669,214.473 383.944,215.538 384.267 C 216.086 384.433,216.888 384.814,217.320 385.113 C 217.752 385.413,218.340 385.657,218.627 385.657 C 218.914 385.657,219.816 385.951,220.630 386.311 C 225.591 388.500,235.546 391.561,242.430 393.015 C 243.964 393.339,245.847 393.783,246.614 394.002 C 247.380 394.222,249.801 394.664,251.992 394.986 C 254.183 395.307,257.141 395.795,258.566 396.069 C 262.812 396.886,301.777 396.769,305.179 395.929 C 306.604 395.577,308.845 395.174,310.159 395.033 C 312.906 394.738,320.474 393.122,324.365 392.000 C 325.823 391.579,327.257 391.236,327.552 391.237 C 328.373 391.240,334.657 389.242,336.480 388.399 C 337.371 387.987,338.447 387.648,338.871 387.647 C 339.295 387.646,340.179 387.362,340.837 387.017 C 341.494 386.672,343.563 385.790,345.435 385.057 C 347.307 384.323,349.369 383.453,350.017 383.123 C 350.665 382.792,352.540 381.871,354.183 381.076 C 356.988 379.718,358.040 379.155,361.922 376.928 C 363.370 376.098,366.748 374.040,368.194 373.108 C 379.171 366.032,394.987 351.411,394.233 349.036 C 394.021 348.367,381.058 335.216,377.092 331.646 C 376.104 330.757,366.036 321.260,362.655 318.028 C 361.125 316.565,359.261 317.596,353.586 323.043 C 351.307 325.231,345.783 329.852,343.967 331.091 C 343.498 331.411,341.525 332.728,339.585 334.017 C 337.644 335.306,335.608 336.660,335.060 337.026 C 333.623 337.985,322.462 343.426,321.930 343.426 C 321.684 343.426,320.809 343.770,319.986 344.190 C 319.162 344.610,317.780 345.082,316.914 345.239 C 316.047 345.396,314.801 345.799,314.143 346.133 C 312.476 346.982,306.842 348.066,296.215 349.582 C 290.483 350.400,275.881 350.431,271.458 349.636 C 269.736 349.326,266.948 348.961,265.263 348.824 C 263.577 348.688,261.336 348.326,260.283 348.021 C 259.229 347.715,257.470 347.336,256.375 347.180 C 255.279 347.023,253.665 346.590,252.789 346.217 C 251.912 345.844,250.478 345.413,249.602 345.260 C 248.725 345.107,247.291 344.648,246.414 344.240 C 245.538 343.833,243.835 343.099,242.629 342.611 C 239.363 341.288,231.295 337.322,231.142 336.964 C 231.069 336.793,230.827 336.653,230.605 336.653 C 229.990 336.653,225.498 333.800,225.498 333.410 C 225.498 333.222,225.258 333.068,224.965 333.068 C 223.288 333.068,208.840 320.453,205.572 316.135 C 204.185 314.302,202.177 311.739,201.983 311.554 C 201.868 311.444,201.434 310.821,201.019 310.170 C 200.603 309.518,200.110 308.801,199.922 308.576 C 199.734 308.351,199.024 307.271,198.343 306.175 C 197.662 305.080,196.770 303.697,196.361 303.104 C 195.952 302.510,195.618 301.873,195.618 301.687 C 195.618 301.502,195.169 300.743,194.622 300.000 C 194.074 299.257,193.625 298.348,193.625 297.979 C 193.625 297.611,193.357 297.086,193.030 296.814 C 192.702 296.542,192.222 295.579,191.964 294.674 C 191.705 293.769,191.336 292.818,191.142 292.561 C 190.806 292.114,190.373 291.044,188.190 285.259 C 186.894 281.824,185.747 277.535,184.887 272.908 C 184.501 270.827,183.935 268.317,183.630 267.331 C 182.741 264.457,182.828 235.335,183.735 232.062 C 184.100 230.742,184.607 228.150,184.860 226.302 C 185.113 224.454,185.484 222.634,185.685 222.258 C 185.886 221.883,186.245 220.620,186.482 219.453 C 187.202 215.910,189.414 210.247,192.992 202.789 C 194.812 198.996,198.572 192.615,199.932 191.011 C 200.129 190.778,200.508 190.182,200.773 189.686 C 201.038 189.190,201.515 188.484,201.833 188.117 C 202.151 187.750,203.330 186.285,204.454 184.861 C 206.767 181.928,206.787 181.906,211.259 177.285 C 213.064 175.420,215.259 173.358,216.135 172.704 C 217.011 172.049,218.087 171.181,218.526 170.774 C 218.964 170.367,219.950 169.611,220.717 169.094 C 221.484 168.578,222.829 167.615,223.705 166.954 C 224.582 166.294,225.743 165.560,226.287 165.322 C 226.830 165.085,227.368 164.760,227.482 164.601 C 227.848 164.092,234.964 160.199,236.010 159.936 C 236.565 159.797,237.228 159.431,237.483 159.124 C 237.738 158.817,238.118 158.566,238.327 158.566 C 238.537 158.566,239.905 158.103,241.366 157.537 C 250.141 154.141,252.213 153.438,255.378 152.785 C 256.803 152.491,259.044 151.982,260.359 151.655 C 263.037 150.989,266.978 150.360,272.311 149.749 C 277.610 149.142,295.296 149.526,300.199 150.354 C 307.961 151.666,308.968 151.867,309.363 152.182 C 309.582 152.357,310.747 152.631,311.952 152.792 C 313.157 152.952,314.809 153.420,315.622 153.832 C 316.435 154.244,317.372 154.582,317.705 154.582 C 318.309 154.582,322.270 156.059,325.299 157.413 C 326.175 157.805,327.341 158.320,327.888 158.558 C 330.500 159.691,339.726 164.977,342.032 166.662 C 348.237 171.197,348.372 171.301,350.187 172.989 C 350.727 173.493,351.803 174.410,352.577 175.028 C 353.351 175.646,355.242 177.377,356.780 178.874 C 358.318 180.371,359.842 181.635,360.167 181.682 C 361.383 181.859,362.141 181.653,362.833 180.957 C 363.543 180.243,366.295 177.667,374.838 169.721 C 386.885 158.516,394.422 150.998,394.422 150.186 C 394.422 148.471,381.035 135.128,376.095 131.922 C 375.548 131.566,373.719 130.244,372.033 128.984 C 370.347 127.724,368.857 126.693,368.723 126.693 C 368.590 126.693,367.370 125.927,366.013 124.991 C 364.656 124.055,363.098 123.060,362.550 122.780 C 362.002 122.500,359.940 121.385,357.968 120.303 C 355.996 119.221,353.755 118.051,352.988 117.703 C 352.221 117.354,350.339 116.470,348.805 115.738 C 347.271 115.005,345.568 114.277,345.020 114.119 C 344.472 113.962,343.399 113.499,342.635 113.092 C 341.872 112.684,340.886 112.345,340.444 112.338 C 340.003 112.331,338.745 111.885,337.649 111.346 C 336.554 110.807,335.392 110.364,335.067 110.362 C 334.743 110.360,333.578 110.016,332.478 109.597 C 330.731 108.931,328.409 108.300,320.717 106.400 C 319.731 106.156,316.952 105.614,314.542 105.196 C 312.131 104.778,309.263 104.225,308.167 103.968 C 306.253 103.519,262.085 103.035,259.163 103.431 M0.000 379.681 C 0.000 380.120,0.255 380.478,0.567 380.478 C 0.878 380.478,1.336 381.091,1.583 381.841 C 1.830 382.590,2.281 383.409,2.584 383.661 C 2.888 383.913,3.251 384.644,3.393 385.286 C 3.534 385.929,3.782 386.454,3.944 386.454 C 4.106 386.454,4.923 387.485,5.759 388.745 C 7.324 391.101,11.486 394.910,13.011 395.382 C 13.484 395.528,13.967 395.900,14.086 396.208 C 14.204 396.517,14.952 396.891,15.748 397.040 C 16.544 397.190,17.290 397.558,17.405 397.859 C 17.686 398.592,18.327 398.557,18.327 397.809 C 18.327 397.480,18.076 397.211,17.770 397.211 C 14.509 397.211,5.285 388.954,3.527 384.462 C 1.757 379.939,0.000 377.558,0.000 379.681 " stroke="none" fill="#cc9c9c" fill-rule="evenodd"></path><path id="path4" d="M30.777 1.494 C 35.543 1.557,43.342 1.557,48.108 1.494 C 52.874 1.430,48.974 1.378,39.442 1.378 C 29.910 1.378,26.011 1.430,30.777 1.494 M346.116 1.494 C 351.648 1.556,360.702 1.556,366.235 1.494 C 371.768 1.431,367.241 1.380,356.175 1.380 C 345.110 1.380,340.583 1.431,346.116 1.494 M380.876 2.789 C 381.643 3.209,382.540 3.556,382.869 3.560 C 383.197 3.565,382.685 3.214,381.729 2.780 C 379.532 1.783,379.048 1.788,380.876 2.789 M384.636 4.342 C 384.758 4.539,385.497 5.078,386.278 5.538 C 387.058 5.999,387.597 6.214,387.475 6.017 C 387.353 5.819,386.615 5.281,385.834 4.820 C 385.053 4.360,384.514 4.144,384.636 4.342 M10.399 6.608 C 9.655 7.137,9.241 7.570,9.481 7.570 C 9.720 7.570,10.419 7.127,11.034 6.586 C 12.442 5.348,12.159 5.357,10.399 6.608 M388.088 6.873 C 388.184 6.927,389.154 7.779,390.245 8.765 L 392.227 10.558 390.835 8.972 C 389.262 7.182,388.803 6.788,388.280 6.779 C 388.079 6.776,387.993 6.818,388.088 6.873 M6.312 10.657 C 5.502 11.623,4.325 13.546,4.544 13.546 C 4.643 13.546,5.269 12.739,5.934 11.753 C 7.178 9.911,7.345 9.425,6.312 10.657 M396.901 21.912 C 396.891 22.679,397.022 24.203,397.193 25.299 C 397.444 26.910,397.507 27.024,397.521 25.896 C 397.532 25.129,397.400 23.606,397.229 22.510 C 396.978 20.898,396.916 20.784,396.901 21.912 M0.000 22.908 C 0.000 23.237,0.269 23.506,0.598 23.506 C 0.926 23.506,1.195 23.237,1.195 22.908 C 1.195 22.580,0.926 22.311,0.598 22.311 C 0.269 22.311,0.000 22.580,0.000 22.908 M301.693 103.462 C 302.077 103.562,302.704 103.562,303.088 103.462 C 303.471 103.362,303.157 103.280,302.390 103.280 C 301.624 103.280,301.310 103.362,301.693 103.462 M274.808 149.691 C 275.524 149.780,276.600 149.778,277.198 149.687 C 277.797 149.596,277.211 149.524,275.896 149.526 C 274.582 149.528,274.092 149.602,274.808 149.691 M269.821 150.075 C 270.204 150.176,270.832 150.176,271.215 150.075 C 271.599 149.975,271.285 149.893,270.518 149.893 C 269.751 149.893,269.437 149.975,269.821 150.075 M262.251 151.271 C 262.634 151.371,263.262 151.371,263.645 151.271 C 264.029 151.170,263.715 151.088,262.948 151.088 C 262.181 151.088,261.868 151.170,262.251 151.271 M389.822 155.478 L 388.247 157.171 389.940 155.596 C 390.872 154.730,391.633 153.968,391.633 153.903 C 391.633 153.602,391.287 153.903,389.822 155.478 M215.921 172.937 L 214.542 174.161 216.036 173.089 C 217.356 172.142,217.786 171.713,217.415 171.713 C 217.352 171.713,216.680 172.264,215.921 172.937 M367.715 176.394 L 365.538 178.685 367.829 176.508 C 369.957 174.485,370.302 174.104,370.006 174.104 C 369.944 174.104,368.913 175.134,367.715 176.394 M354.582 177.092 C 355.325 177.859,356.023 178.486,356.132 178.486 C 356.242 178.486,355.723 177.859,354.980 177.092 C 354.237 176.325,353.539 175.697,353.429 175.697 C 353.320 175.697,353.838 176.325,354.582 177.092 M204.382 184.861 C 203.465 185.956,202.804 186.853,202.914 186.853 C 203.023 186.853,203.864 185.956,204.781 184.861 C 205.698 183.765,206.359 182.869,206.249 182.869 C 206.140 182.869,205.300 183.765,204.382 184.861 M196.229 196.648 C 195.858 197.215,195.622 197.747,195.706 197.831 C 195.790 197.915,196.173 197.451,196.557 196.800 C 197.416 195.347,197.160 195.228,196.229 196.648 M187.316 216.153 C 186.648 217.618,186.776 217.930,187.497 216.598 C 187.834 215.976,188.036 215.393,187.945 215.302 C 187.853 215.211,187.570 215.593,187.316 216.153 M130.532 221.369 C 130.392 222.397,130.353 223.315,130.447 223.408 C 130.541 223.502,130.742 222.748,130.895 221.731 C 131.047 220.715,131.085 219.797,130.980 219.692 C 130.875 219.587,130.673 220.341,130.532 221.369 M129.207 235.657 C 129.209 236.972,129.284 237.462,129.372 236.746 C 129.461 236.030,129.459 234.954,129.368 234.355 C 129.277 233.757,129.205 234.343,129.207 235.657 M183.375 235.060 C 183.375 236.046,183.453 236.449,183.548 235.956 C 183.643 235.463,183.643 234.656,183.548 234.163 C 183.453 233.670,183.375 234.074,183.375 235.060 M183.045 250.000 C 183.045 256.574,183.099 259.319,183.166 256.100 C 183.233 252.882,183.233 247.503,183.167 244.148 C 183.100 240.793,183.045 243.426,183.045 250.000 M128.414 250.996 C 128.414 252.420,128.487 253.003,128.575 252.291 C 128.663 251.579,128.663 250.413,128.575 249.701 C 128.487 248.989,128.414 249.572,128.414 250.996 M129.211 265.339 C 129.211 266.763,129.283 267.346,129.372 266.633 C 129.460 265.921,129.460 264.756,129.372 264.044 C 129.283 263.332,129.211 263.914,129.211 265.339 M183.375 264.940 C 183.375 265.926,183.453 266.330,183.548 265.837 C 183.643 265.344,183.643 264.537,183.548 264.044 C 183.453 263.551,183.375 263.954,183.375 264.940 M184.331 269.920 C 184.633 271.890,184.863 272.225,184.854 270.684 C 184.851 270.045,184.677 269.253,184.467 268.924 C 184.208 268.517,184.164 268.835,184.331 269.920 M130.347 277.092 C 130.340 277.530,130.489 278.247,130.677 278.685 C 131.114 279.700,131.114 278.653,130.677 277.291 C 130.421 276.490,130.356 276.451,130.347 277.092 M192.032 295.109 C 192.032 295.340,192.401 295.953,192.852 296.470 L 193.673 297.410 192.973 296.215 C 192.052 294.642,192.032 294.619,192.032 295.109 M204.018 314.191 C 204.547 314.874,205.060 315.361,205.158 315.274 C 205.256 315.187,204.823 314.628,204.196 314.032 L 203.057 312.948 204.018 314.191 M207.968 318.850 C 207.968 318.918,208.551 319.501,209.263 320.145 L 210.558 321.315 209.388 320.020 C 208.297 318.813,207.968 318.542,207.968 318.850 M350.598 325.398 L 348.805 327.188 350.697 325.698 C 351.738 324.878,352.590 324.049,352.590 323.856 C 352.590 323.394,352.655 323.343,350.598 325.398 M215.538 326.014 C 215.538 326.116,216.381 326.890,217.412 327.734 C 218.442 328.579,219.157 329.062,219.000 328.807 C 218.665 328.266,215.538 325.742,215.538 326.014 M373.904 328.685 C 374.760 329.562,375.550 330.279,375.660 330.279 C 375.769 330.279,375.159 329.562,374.303 328.685 C 373.447 327.809,372.657 327.092,372.547 327.092 C 372.438 327.092,373.049 327.809,373.904 328.685 M384.661 339.044 C 385.517 339.920,386.307 340.637,386.417 340.637 C 386.526 340.637,385.916 339.920,385.060 339.044 C 384.204 338.167,383.414 337.450,383.304 337.450 C 383.195 337.450,383.805 338.167,384.661 339.044 M274.203 350.075 C 274.587 350.176,275.214 350.176,275.598 350.075 C 275.981 349.975,275.667 349.893,274.900 349.893 C 274.133 349.893,273.820 349.975,274.203 350.075 M172.510 356.375 C 173.253 357.141,173.951 357.769,174.061 357.769 C 174.170 357.769,173.652 357.141,172.908 356.375 C 172.165 355.608,171.467 354.980,171.358 354.980 C 171.248 354.980,171.767 355.608,172.510 356.375 M182.833 365.074 C 183.416 365.799,185.657 367.507,185.657 367.225 C 185.657 367.137,184.895 366.460,183.964 365.720 C 183.033 364.980,182.524 364.689,182.833 365.074 M397.275 375.946 C 397.240 376.631,397.122 377.796,397.013 378.536 L 396.815 379.880 397.235 378.544 C 397.465 377.809,397.583 376.644,397.496 375.955 L 397.339 374.701 397.275 375.946 M0.000 378.486 C 0.000 378.705,0.269 378.884,0.598 378.884 C 0.926 378.884,1.195 378.705,1.195 378.486 C 1.195 378.267,0.926 378.088,0.598 378.088 C 0.269 378.088,0.000 378.267,0.000 378.486 M3.595 384.707 C 3.606 385.172,5.159 387.151,5.170 386.716 C 5.175 386.532,4.821 385.925,4.382 385.368 C 3.944 384.811,3.590 384.513,3.595 384.707 M391.235 389.641 C 390.541 390.518,390.063 391.235,390.172 391.235 C 390.282 391.235,390.939 390.518,391.633 389.641 C 392.328 388.765,392.806 388.048,392.696 388.048 C 392.587 388.048,391.929 388.765,391.235 389.641 M7.171 390.040 C 7.639 390.697,8.112 391.235,8.222 391.235 C 8.331 391.235,8.038 390.697,7.570 390.040 C 7.102 389.382,6.629 388.845,6.519 388.845 C 6.410 388.845,6.703 389.382,7.171 390.040 M264.433 396.702 C 265.141 396.790,266.396 396.791,267.222 396.705 C 268.049 396.619,267.470 396.547,265.936 396.545 C 264.402 396.543,263.726 396.614,264.433 396.702 M296.116 396.705 C 296.937 396.791,298.282 396.791,299.104 396.705 C 299.925 396.619,299.253 396.548,297.610 396.548 C 295.966 396.548,295.294 396.619,296.116 396.705 M380.131 397.171 C 379.830 397.362,379.651 397.680,379.732 397.879 C 379.814 398.078,380.194 397.919,380.578 397.527 C 381.309 396.778,381.062 396.581,380.131 397.171 " stroke="none" fill="#ce9494" fill-rule="evenodd"></path></g></svg>